<mxfile host="65bd71144e">
    <diagram id="Av_qO6X02hQtPIMoWXwA" name="Page-1">
        <mxGraphModel dx="1174" dy="617" grid="1" gridSize="10" guides="1" tooltips="1" connect="1" arrows="1" fold="1" page="1" pageScale="1" pageWidth="827" pageHeight="1169" math="0" shadow="0">
            <root>
                <mxCell id="0"/>
                <mxCell id="1" parent="0"/>
                <mxCell id="2" value="" style="shape=image;verticalLabelPosition=bottom;labelBackgroundColor=default;verticalAlign=top;aspect=fixed;imageAspect=0;image=data:image/png,iVBORw0KGgoAAAANSUhEUgAAAggAAAFBCAYAAAASQ1daAAAAAXNSR0IArs4c6QAAIABJREFUeF7sXQeYk8XWfpNNsr33Tu/Si/SmYrso9n4V9epvxXKt144NC0WxAWJDBWwINkCRDtI7LLCwbO+9Zjf5n3OyXzabTbJJNskmuzPP4yOb7/tmzrxTzjtnzpyRjRs7RQuROhcCUovLGqtNfxv+2xANS+8Yf2Pub8rPmjKNyzIll7UymyqP5KDvjXu8tXWU3pPwMSzDUnmm3pcwsYShJGtr7xjiK5VlWE9T3xti0Phcq9VCRgBZU15Hw0DqG9a2i+EYcYd+YCy/cV831XetaWdzY6VzzZidtrYyQRBsbHvjidXVfxsrW0v0rjXFYGoSMTUhmFN+phSusQJ2xt8dDQMbu6AjXte2YEmWc2Xi0J7JVD/qaP3AnrEiMND1SlMkzVR/bedu3J5DyJ6ydQTBmtWWJWXT1mfGbNwWZtva6k9LfUcLmUzGnUiqrLRSMlw10b91Os/KXtQ4oPV5Gpchk6FZniSCrWUYt6phHibqZFw/G/WAvjRTdWIMaSwa1sHUitxQZgsYSTg3k5nHeuNKtvHfhm3S2jPpXVN5etoz3bxnPxaW8LV1sqC8nCWL6Ac6bI37eYt+b2J+aaYcW2tUg7nS7JzYSp9rUYQZUmN2TmzsR5bqarEaZoiifk5qbU5sDSOdYCYtnmbnRHuso8ZyWGuFcrGulo0bY2GLwdLk35pisKYh7HinNWu4afx0k6zuWdMbuirocmz6d3OKYFieJG7Ltmwa3IZlSJOq7rvmZTRNitJT3f+l8sxa141IhnGdjOtnWGPb4Lau11vfDazLrzkKzdvLumcWRnhjO5je77D8nXFbNsmia1nnsGzDHmEPFsZM27YeYP5tc/sXjmT2ba175+gH1o8/UxrJnvZqPl+1mBN5fmrqq8bzrlPmRKOFhC1zoqmebFin5gi1nOcNF5PW6ni7R2E76GPLBMHumtj/oaVViq7bmVbGxrTPuGFtIwhNKl3qbMarnJakQlIUxoPDFCFpmb9EIZp3bvtxdOyX9k9D9svRDqPBfmGd9KXAwLTTiAR3e/RLJzW1xWzdrZ7m5WlOAGzHyjShaCKL5hdyjtELzef5JvXfcuGnk6nteqHJYm2o+2xHzjlftCtBkFRnE9dv+sW4o5kyQ1raR7XmfcMyTHVs4+eGBKVJoZuX2TlNJnIVCAgEBAICgSYEmghLawSlNb1gzbZcW/WCKd3Wcoup+UKzvVpbNtbSFoNTpDK3SWBmM0svgylzmCHFMBbWmveNDUzG+bXG3Ft77hQARaYCAYGAQEAg4BAEzDg1mHXMa1rO6oo3tY1njS5ruTy2nJ9UWVOb3g4BwmQmFglC2w2c5kAwBtnav5tYlWXTo6mGM1UboeCd17VEzgIBgYBAwNMRaI0AtPbcWt1m2nvONGloSUCcpckcbEFwNCEwzs8WguDpHVPILxAQCAgEBAKeh4CzLAim3CDNLYYdg5ps7JjJluz0jilF5CIQEAjYhoDhcRZTXzpqyWBLPm03KZrHQFqI2YaSeFsgIBBwIgKCIDgRXJG1QMBuBDobbRcEwe6uIj4UCDgLgbYRBHPbJoaD3Zrj78ZWElPbOs5CoLV8nblqaq1sd3luyyrTUTIL3B2FpGfnI/pB6+5Wrm5h0SaOPX1rqO9M+dYbtq/ZADkGQXTofVP+9nb0E8cQBEnBO9IFwY7KiE8EAgIBgYBAQCDgsQiY83k0VPrWHLxoN4JgyU9CEASP7ZdCcNcj0NougisWarYYh1whj6lWELsPru+bosR2QsCZBMHYmm9FFW2zIDiSANgyM1lREfGKQMCdEWiNDLiz7O4omyAN7tgqQianIGBq26EtB/xsGDyysaOtP8XgSH7gFCBFpgIBgYBAQCAgEOjACNizw2AIhw38AIIgdOCOJKomEBAICAQEAh0LAUEQOlZ7itoIBAQCAgGBgEDAIQi4lCCMsWGLwSG1E5kIBAQCAgGBgEBAIOD2CMgEQXD7NhICCgQEAgIBgYBAwOUICILgcshFge6GgJfcC926d4WXlxdOnTyF+oYG0yJaCgzmjGckha2BUawJumLuQjhnlUX1MLSLWvLKdtUzd+uEQh6BgBsiIAiCGzaKEMl1CPj4+OCll57F6DHnQyaT4+DBQ3jiv8+gsrLKepJgLvqZqZghrlKA1hIWayKd2ko63CFPa0iJ67qZKEkg4JEICILgkc0mhLaEAFkClEoFK3xagjc0aKBWq6HVtoxGcNVV0zHzztsRGhrCWdbU1ODHH3/G+ws+FCB3NgRkthwA62zgiPp2RgQsEwRTpkhrVkUdCcn2Ch/nThi2R1ArO3D38/dFXFwsunXrivj4OPj5+aGhoQHl5eU4e/YcsrOzkZmZjdqaWj26t9x2I2655UYEBgbwb7W1tVj102rMn7fQJS0gl8vRs2cP+Pn5NtrhdfsKanU9Dh8+0kwGPz9/JCbFw8/XT7/3oIUW+Xn5yMzMcom8naMQNyMK7TH+LDW0HWOzw/Wb9sDAmjJNRWJsgzWtdYIgZa6bt5qSqbMWIlxchxsHnlKh2LgYTJ06CRdfchG6du3SQmyNRoOTKaew/s8N2LRxCzLSM/kd8j247767MXjIILY4nDiRgkUfL8G+fQf4OZGM6OgoBAQGwN/fH1VVVThy+CgTD0ckX18/LFqysIXMJSWluOySK5sVMXbsGDz48P8hMTFB/7tGo8Xyb1fi/feExcMR7dF8gnNsjiI3gYBLEGiNUJrbEjUhnCAILmkxUYgzEYiICMcdM2/FtIsvgq+vj8Wi6uvr8cfv6/HWW3NRV1cHmUyG3r17omeP7pDJ5UhNPYPDh4/q8xg6dDBuufVGREfpSAKRg1deeQPV1dUOqVJAgD9WrVoJX7YgNCWSc+L4C/WcnMb0XXffgZtvvgEqb5X+Rdo2Wf7td1iw4AO75GltLjHM1JoFjF1CeMhHMva0FEkg4OYItDao24UguDlmQryOiQAp+Ouuvxq333ELgoKCuJLkb3Do4GHs2LkL6ro6JCQkYMTIYUhIiGdSsPD9j/HTT6utsgJMvWAy/vvfRxAUFMh5b9+2E//730sOIwgk82+//8RExTCR4r/ttrtw+lQq/0xbEQ/Puh/XXntVi/eWL/8OC+bbRxA6Zq9wTq0EQXAOriJXFyNgE0E439JdDC2dEGjPkxINlqZ/6ypojXuC8Wknd3B4tuSErpsUpJrqTmtJdbX0TIdRc0zsxai9v6OaEALmHPAt49eybzThZ+mZdbiTxeDhh+/Hv6ZfpleyZ8+m4dFZT6KktBRajQZ0UiE4JBhXzpgOTX09lnz6Oaqra6walfYQBNqWSEpORER4ODSaBhQWFuP06VSQVcA4hYSE4NffftT1qUYnSoks/PTjasyZ8y4/8/ZW4eFZD+DKK//F70nv0L9XrPjepM+Et0qFuPg4kIWFZKLyi0uKkXbmHCqrzJzSMIEKOX326tUDUVGRfLrjbNo5FOQXWIUfvaRQKNCvXx8EBQejrLQUaWnpKC0ttfi9dPQ0PCIcCi8vFBUV4dy5DFRUVFhdLslN/ihU/6ysbGRkZFpFCq0twFUHUtpn/LV9bEpzYHvPX9Ye6LFFTkttYvlZ08ll23WfdXOiadwN9bWu5xrqcnN9XjbGAQTBWBkaF9aaxUN63xx5MKVszblDWHKN6OjPbMHdFnOxMRk05WrSXtgGBgTi4Vn34dLLLtZXn7YI/nP3/fq/JdmUSiX/RhYGKdHphZdeeg69+/Tin8jh7+235yM2Nhr3/t/dCAgIgI+Pt14hk5Klkw6ky6uqqvHIrP+CCIlOiXtjypSJuPmWGxATEwO5XDcQyf8hIyMLiz75FNu27Wh2miIsLAxrfvme3yO/hvr6Bj6BQRaDsrJyXDxtOj/r3qMbZs26H8OGDWVFT0pXSqt+WsMEoaZWR3q6dElmGc4/fwR8fX3Zt0IyUJDPQl1dLVYs/x7Lli1vhgXl+cuvOrJCiU5zbPhrIx577GF0696FZSJCQnJ9990P+P67n1Bj4PBJjqGfLv1Y//0rL7/G9XniyUcQHBzMGNL3+fkFWLz4M2z8exM7YxomQmzkqBH4zz13IikpEV5edBKFMNSioKCAy/ztt7XNiEL//n3x+huvMP6UXp39JrZs2caWnwsunAIvuRwrV/6ATz/9gp1QHZmsnbOMy+wo40+ql7U4uHqeaAvuxv2yuc5pvkC2/llzVz7X4ecEgmDMMJrW0c0tCI4ccCIvgYAtCPj7+fHK+vJ/XaL/rLCgEK+99hafAiAlbsmhkBT0nDmz0a9/X/4+NycXr746h09DkEmfFKy5RKvSRx95EufOpYPkIF+Ff99+C79OipAUOREJlUpHTMjBkZTyN1+vYJJBKTIiHKtWf8f/Jjl3bP8HPXp2Z8dI9kOYcBHndckl01ge2uogQkIkQEobNmxigpCXl8c/kWL9dvkX+ufGlgmprDVrfsPcd9/jbRdKSoUSGzev1X+XknKK/03WA+NEsi1Z/Bm++Wal/ntynly+4kv9q0SGyHJAVpIW36vr8cILs/H335v0hEmlUmH69Mtw939m6k+VUDlEsIjcGVpWPvjgEz1JGDhwAObNf5uJHKWvly2HQqnAddddrS/2yy++xqJFS01accw2sHggEOiACEhbZVZZEEa3akEghIyNadJv4thCB+w/HlUlMj+T8971N1zLZnhKpBArKyuxffs/2LZ1Bzse5uTmorysvEXdzBGEwKBA3HbbTaDnYWGhHGWREhEOWgFrtRrs3bMfS5Z8huLiElx88YV4/oVn9OWnnT2Hw0eOol5djxEjhiI+IZ6fFRYW4Z2352Pjxs0sZ3RUJH5ctYKfkSL8YOEnmDxlImhVTOmqGTcyabn+hmvw0MP38W/kbyD9m/7eu2cf5s1biFOnTvNzuUyOVat1iru0tAxVHPRJi9CwMCQnJ7IlgBKZ3N9/7yNs2rSF/zYmCPQbERl6r7y8ApGREezHIaX09Ay8NnsODhw8xD8ZEwT6jdqBCFRtbR2TLspDUvR0quS+/5uFyqpK/m3EiGF4+pn/MjmiRNsYu/fsZcz79evLREWS/ZWXX2dLAiVjgnDkyDHeWpAcVgnXpUu/xKdLPjcZC8OjOrwQViDQZgSsd0KQCYLQZrRFBu2MACnT++6/hxWFpMglkUg50Ip7545d2LNnH/bvP8greSmZIwinT59BXFwMm7tvuuk6PuJI6dChI/jk40/ZTE/KPjc3j5XWd99/zcqPEv0+Z85cbNu6na0C48ePxetvvKw30a9atQaLPlmK4uJiVrgrVn7F35Gsb7z+Ni65dBoGDx7ISvOjDxdj2bJvcdNN1+P/7rubTe233nInln39qb4OJ0+exvx572Pv3v3636ZPv5z3+U+knERBXgE0Wg369umDufPngE5OUCKCQlYAMr1TUiiU2GRgQVDXqbF581YsXfoFx5EYNmwI3njzFfbpkNKLL8zG+vUbWHZjgkDk4ocffsaK5d9xXWfMuILrIG0FUB7XXnMzx3AgZ00ieldffYWeQLz77gJ8t/JH/nvQoIF44slH0aVLEhedk5OL6669hS0CxgRBspjk5eXj1MnTHDp7/bq/8OefG9q5p4riBQLugIBNBGGSMAO4Q5sJGWxDwKDX0l7/yFEjcd31V2H48KHN9ucNM6WV+Lp1f7FTX0F+IT8KCze9xbB7115+zk6KTzSdYthGpxiefQk1BsccyT/gy6+W6IsihUkmf9rqoBQQ6I9lX3/WjEA8+cSzOHrkOMdf+ODDeXqCQPvnI0cNx9Spk7keu/7ZjZdeeg133z0TV1x5Oe/Z33Ddrfj+x2/05RFJofL+3rCpVQy/+GoJevTo1kQQlnyOTxd/riMISgU2bV6nz4OsIJTvjh3/6H6TAW++ORvjJ4zVv/P5Z1/hqy+/YafHxIQELF/ZtMVAZOzll15HTk4Ob7wmd0nC008/joGDztN///LLr+P3X9eia7dkLPxgPkJCgvkZWR5uu/UuZGfl6DAM8MftM29loiSl6Zdfg4KCQgwc1HyLgZ4TOXnzjXewZ89+JkLke1BRbr2Do1kgbXEeMM6k+UGVVttKvCAQaG8EZKPPFwShvRtBlG8HAka0llaZCYnxbIqefsVl6NWrJ/z9KeJg80QOir/9+gfemjOPV/eOIAj/d/9/cOutN+qV7rq1f7L5m1bVlGhv/Z5779IrZpLhoQcfw4H9h1jpP/nUY/weyUMEgU4KPPPsEwgODsKxYycwf+77ePa5J3mFTiv5Bx94FKvX6PwWJGU4b+5C/Lxqjf43L4WC4zsMGNAPiUkJnBft4w8ceJ4+rLTOgvA5m94pGRMEChZFZUu+CPTOpMnj8drrL+vL2bN7H2bPfgO5OXk6C4IBQfjll9/5SGlJcQm/7+fvx3EcKGaFlP5cvwHP/e9l9rtY+tnHegtQRnoGPv54CcrKy/Vu3xMnjseMGdP1FobHH38G27ZsN0kQPv5oMb74/Gv32lIQBMGOgS4+aU8EBEFoT/RF2dYhYIONi7YYIiIj+Eje2HHnY/LkiRx2Wdq7JqXIfgDvzMfGDZtNE4TZc7B7t/UWBLIAkCWAks7/oYpXwFIi8kIKWjKtExF48P5HebvjgQfvxU0361bFEkHYumU7aKVPe/G0iifP/YcfuZ+VJzk40vbEH+tW82kH6bt5c9/n9ygRIXniqUd5m4JW3rQlQNYIksMw3oI9BIEiT361rGl741zaOZCipsiUrREEuZecnRBpq0BKx4+fwMzb7+VTJJ8u/Ugvn+Q/IZEsJhh+vnyqRKrDBws/xldffqvbYljQ5KRI79L2gxQt07pO5uK3BFlwMeCiOHsQsI8gtHYtLEliSxAA2w+E6uoqvmvpP2oL7sYYtuXAsHOCITRvZxt7OCnQwKAg3P2fO3DppdN4BU2JVvC0t/3egg/tJAgvosYgjsLSzz9G7966Y5LWJDr699ADOoLw5luz2UdBTxBeeRNr1/2Jld8tQ2xsDMrKypCSchrDhw9h8vHM0y9g49+b8fOa7/h8v/QdbQVQneg84+IlH7D1QPLHoJgPdOKCzPF9+vTkI4fc9HZYEPiExIqmExLn0tLx38efRroVBIEU+7/+dSmeeuZxA4KQgpm338OnSEhuWxJZGD5f+pVJgnDpxTNQUqKzXLhtMnc20J4AC64Yf4ZleEp5tuoiR86JUtmW8nS1DjMeDOaufm98zzJBMKcw3HbECcEEAi0RoG2E9xe+qz8aSCv1H39cjXffnm8nQWjug/DK7OfZV0FSuuSnQFYAnbOciWBjWi22btnGloxl33yGrl11RxbJ4Y62GCgU9NvvvoExY0ZxHvQfWUDo+dNPPc95f/bFIv3xQ1plkwWBCEK/AX2xYME7vNqm7+gEAREhOs1B6d15b+L880faTRDIaXPe/Dl6kMkx8pWXXmdnzdYsCGTJuO6Ga3DvvXfqv//rz7/Zp4O2GD7/YpHeOpCVlYMfvl+FykryGzC93N6/7wDS0s6ZIQhXoKSkTAwHgYBAwBgB630UoSMI1hABa6MdieYQCNiIgDWBlwyzNO6KPt7erGDycvN0RxANXqZ3yVQ/b8FbSE7WecCToiXveooBEG7KSXH2HOxq3GKYPHkCnnrqMQQF68I479y5C88/9woHC5LShAlj8OacV/V/0xHGue++z0rTMNGRTFpFqxsjKpJsGzb+rt96YILwypv4/Y/1GDVqOObNf6vZ9+S5T05/5Bvw7rtvYPSYUfycCAJZEFas+AEvvvgsLrhwMlsPiCCQH8Crs3UKncqb/97bfJxQIjPkg7Ck0QeBLC6GTooHDhxiH4Rjx1P03z//4jN8pFNK9O03y5bzUcSExASsMPBB+OP3dVgw/0MUFRfz64kJ8Xj8iUcwcqSufErPP/cy1q3bgB7du2Hxpx/osaAATLfdcifSM3SXaklJ3hjxiYlT44+DTGwxXHKxcwhCW3wUm1XEij/ELoQVIIlXbEfAXCc2QRxko0cJJ0XbERZfOBIBG1wMWhRL++0TJozFzDv/jaNHjnF8gVOnUjmIDimRkOBgTL1gEm66+Qb9fQrkH7B40Wf49tvvmCC8OWe2Pu4AKWFSqJIPwqBB5+G111/iWAiUUlPPgva+jx9P4f3wnOwcdu6jcMkkCyUqe+H7n2D9+r9QUVHJERUjIyPZYZCIBa26yYpBv2/d9pe+TrT1MXv2HKz9Yz0H/dnw9+/N6kuOjx99sBh5+fl49tkn9MGhqJ5kQSCCMOet2Rg7drT+SCWdbHjjjXe4XCJKC957mwMpUaLvPlv6FUc15GBECgU2bWk6xUDbEkQgyJGQSA1ZOhYv+VAfkIi+oXsp/t6gi+lAFgRDgnDixEmO+UDtQhYQIi5PPPlYs++vvOJ6JnWxMdF44aVnQXhL6cMPFoGOhHL8ikY/jr59ezPVofaRAjyRD8J8Ix8EZxEER/b71vISBKE1hMRzZyMgCIKzERb5t0CgLYTAMDNajdPZ/Ice/j/07KmL9kfK5tDBI7z/rNFqOVLheQP7c8AjSSmS4nr2mRd5X146xSAFJjImCEQgyHmOnB4p1dWpkZJykk3b5Hj43oKPQAGD/vvELPawlxLFUaCVfnFREccXoBMWpMioTFrtkwwKhRc2b1mv/4bypi2GtWv/5PDAq1avgJeXzhGRFPDST79gyweRCzLTG0ZtpG0EIjxXXT0dDz14n/7GR6rP5s3b+MglORhSKGjDMM1kpp/beFLBmCBQuUSE6KSCWl2H/gP66a0P9Ozo0eOY8+ZcviKbkjFBoN+2b9+JE8dPcsjk4SOGQafgdemff3bjqSeeQ3VNDct00bSpHNaZtkcoke/E2j/WoaCwiP+OiozE4CEDmWy89OJrHJOCUkclCMYDRxAGMZm6GoEWBKE9fSZa83205BdDwLWXf55UNk/kjS3YFlmkfDzBD0jqsPb4Nzqis/fp0xt33307ho8Yql/BW8qXzP5vvzUPW7Zs59c4UNJb5i0ItC3wyqsvYNKk8S2ypRW07qrlDzlK4BNPPIJR549o9h69I52goAe06n3//Y+x6qfV/N7GTU2hjcmsTgSB4ihQGjduNOSNERwpZjNd+JSZmc3Prr12Bh597CF9WXRU8YsvvmHlSoQmJiZa/4wIBREM2nageAAUaZCIFSX6mywmFB/CmCBQUCZK0p0ShhUjArZ48edY/fOvzUItG1oQqO7GJyekPCiI0Zw33sW27Tv1RxEjIiL4Vs7LL7+4WTAlQz8M6fsff/gZb82Zy+OtMxEE43HWlvHXljnKnvHelvI8aU60Vo8ZjidH6A1b2sTaubcZQTDeu7XGNcHagjz1PVfuOXoqRu0pNylfWuVPnDgOl11+Mcc/MFTIkmx09JBWrB9/tATp6ekckdAagkDvkLJ94cWnMXiw7iijlEjx/rNzNx599ClWhImJ8XyMjy6OokugDBMpS7Ie0A2Nf/yxnh0UaRvhrw2/6V+jEwuvvvoWNm3UhT62lKZMmYBXX3tJ/wpd2PTJJ5+iqKiYnRdnz36B4x8YpqysLLz15jxkZedwZMdu3bpg1649mD/vAyYfxgThxPEUPvkwdNhg/Z0UpKzpt6+/XoE1q3/lLRQpGVsQiIQFBvhjwHn99ScqJMdJ8l3YtHFri8uTyCpDN1Zefc0VIMJgfA12UWERk5mfV/2C1DNnuejOQhBa6xOuei7mRFch3bwcR+FuzSEZqWQ9QTA2+1pie+0DjyhVIGAeAVod06VI5CswZsxo3tMOCArg/Wsy51OYZVJmxrf5kQIi73r9rYEUda+mtsUFT/ROv369+UgiBWAiL/utW3cgMzOTHfSkREcpKRogOQKS42RwUBByc3N5u4FW7rSNYHjtsxT2mL6nQw8UAdDS5VJSOVRf6a4B+o0iLJJ1QgozTIqWHB0pFgLZ1sgcTw6WdG8EvUMEhk4z0N/0O/1mTBBI5oULP2HL3PjxY1hhnzp9Gmv/+JPveDC+vtqYIJCDJPl6UBwKir5I10+T4yOVV1pWBk2DLpCUcaLtBooZMXToIJx3Xn+EhoaipKSU8Tt48BDfC2F4IycRQl8/32ZnHcjPpPH2bDFsBAICAQMELBEEes1wK0t2vnBSFJ1HICAQ4LsYFNhs4KRIBIGcHw0jKVoCyhRBoEiKREJEEggIBDwPAUEQPK/N3F9iRyzd6DibuXwsPXN/dKyX0BUYGJRB1g/DUwx6gnDipE7mVuQxRRDef49CLeuOOXaI5Io2sQUoSZ7G45+2fCreFQi0hoAgCK0hJJ63jgArcmPDVeufiTdaQ8BRu46tlaN7rlAqm1sQ9koWhEaC0Eo2TBC+091MSYm2GOg6aekuBuukcPe3XNsm1qNhalPYbIwp67MVb3ZqBJoTBEtHGCSYHHVGzVNgd9f5wJX4tRokq7N1CleB79rO15Ig7AddAkXHOq1JgiC0OlCsgdHB7zjhcKRru6WD8XBQdu2BgaPKtMFLsYkgCC9FB/WczpiNIAgdodXpBkg68llQUMRxE06ePMUxEOh0hTWJgkHR1diFhYUoKCzEgX0HcfDgYf0xSGvyEO84GgEnEARHiyjycy0CNngpWkcQXCu+KM3tETB3INbtBRcCtoJAXHwsKB4DneSw9kSFlCU5ORJJqKmtQW1NDedjeBujAL+9ERBkob1bwC3LN7ZMGHQTQRDcssXcXShhMXD3FhLyCQRaIiAIgugVJhCwSBBGGt7FIFaGpgeVOYXojnuOjh8CHYUOUFTEBo1GHyvAVqTooiAK3+yMZMrFk2I0SHENTJXJQYQMLi1yhFwkh0wu198i2ZY8CS9Ci8JG1zc0mM2K4hjYYmmgGBAaig7ZFuHEt2buyLQGGEdthltTlninCQFn4W7GwZXmgvNbIQi2hG+0N1ykYRewNkyl60JC68AzXZ75Z1QnS8Gm3PVZRx2OiQkJCA4J5oA7WZmZfFcBBRciJUu3GJI5nBIF6FFTwCGxwGb5AAAgAElEQVQOMSzn+xKIE9Sr69Gvf18cO3pMr0ClQEEUEZFam0zylCjoklKpQl1tLZTeKo6/TYF9KG/6hkIXU9lkkmfl2NAAlbc3lColKit01xuTXPHx8Thz5gz/rtVo9cGBKGiTVqtBaGgYqquq4ePrg6LCQsi96EroBg60REcWWZFqNPw3KWkK20wy+vn6MtGhoFFEQKgsumiqXq2Gj68vevbqgTOnz6C8ooLzIZml4E1UBwKEFD49o3rRM19fX9TXq9FQT3VRoaFBg8jICChVKl2ApZOnUF5WpiunoYHzpDFA5Q0dPhTbt26HSqnUEzgic1IZJDO1AxEXdZ0aAwb0R2rqGS6bZDcOftVR+7Ar6iXNS6a2qal83fzcueZEy1joWsUefWT7N87CnYi8Thpd2xpQEokgNL0gPWwujCmFZ629wVreY6w0LYV+Fs907WQttsaTS+ewfehqTYrn+huvx+pVa5CQlIDMjAwkJCaiuLgYoSEhrEjPpacj0D9AF5FPJuNIgaQACeCEhHjs3bMPs19/BXPfnovw8HC+sTE7OwdVVVXo0aM7R2M8evQYK2S6LTEoOBhpaWkgYkIkgO4e6NuvLytymUyOs2fPNP5dhNCwUGRkZCI8LBwlpSUc2jkvNx+XT78cny/9HL179+KyKCKjXCZH7769UV1VxddJh4SEYMiQQUg5kcJD3M/fH0cOH0Hfvn2YONTV1rGsdJtjr949sXP7Tlxx1RU4dOAwX8BEirZrt67wVnkjIDCA5evRswdfkkT3OkRGRYGUNV1ORUr9wgun4siRo0xoSPGXlpSgoKAAUVFRCAwKZDm69+iBjPR01KsbMOPqK7Bj+04MGDgAv//yO7r31D2jS7USEhLg6+eDO2begddmv86RJwsLiuAf4Mc9mwhGdlY2X7xFfxMu+fn5TEaILBDBio6Kwtat2+y2CrlC6XpSGR1tDrZl3rNlLnUETs0UsZl7fGzRu6Z2Ckwt2lvm2UQQjEmC3oLQtEaWTrQ3/8iTOrmQVSBgiIC/nx+vUg8eOIRpF1+IU6dOIyYmBrk5uUhKTsLJlJOs4EeOGonDhw+zsjt86DCvYElJTp4yGQvmvYfX57yG5V8vx5hxY3D61GkcOniYFdjUC6ewhWHXrt2orq7GoEEDmXzQSKqqrIR/YAAiIyLQixV9NpMKik541dVX4JuvvsUNN12PX375Df3690NNdQ26d++G1T+vwaWXXYINf27AJZddgl3/7GJlTuGUhw0fisDAIOzft58HKxGSxKREXr3Hxcfhy8++wohRw3llT0o0KCiIr1yedslFWPTRYny4aCFe/N9LuHDahVi8aAlun/lvbNu6HXfePRPPPPksBpw3AAf2H0BMbAxbMeh+i9Wr16CivAK33nYL9u3bzyGtyfoQGxuLispKFBcVo3efXlj902rExMYypvRs/KRx+GHlj1jwwTz899EnOewyHZuketx9z134Ztm3ePp/T+Ot199CYnIi40Wy0x0X991/L558/GkO05ybm4/BQwcjIyMDDfVkfVGyVeLiS6fhi8++bBH2WYwAgYAzEbCFTDhTDkfkTVaD5vq/yYpgkiBILMLwI0cIIvIQCLQHAqQkr7zqShw8cABXXT2DLxmiVTmttLt07YIzqWd4tUqKjczqpOzoQielQsmr2v4D+mPhex/gqWeexKa/N6HfgH44dPAQjh45iuqqGjzw0H185fH+/QeYMAwfPgwyLzmyMjIRFR0NH29vXsWT4iWrAhEEujDpiun/woYNGzBu/Dj8ue4v9O7Tmy0QdMfC339txL9n3oY/fvsD0y6Zhr83bOTVOVk3hgwdggsunIpFHy9GnbqOr7omwqNQKlBWWoYtm7eiW/duvNImkz4pZVKsQ4cNw9IlS/HRog8w790FfAPlL2t+xRUzrkBOdg7GjhuD+XMX6AnC+aNHoXuP7ggODsayL5exVWXc+LF8BTVtWdCWDRGi/IICJCUloaK8HAf3H0L/8/rj4IGD8Pf3x/iJTQThmSf/x3nTM7I6XHnlFTh27BjuuPN2vPXmOxgydDDjR1scdHfGgw89gCcefxJXXX0lb9kQ0Tl58iTq1GoovBTYs3sPrpxxJVYsX9Hsbob26GOiTIGApyLQKkEQRMBTm9aBcltyNqFiLDmHSGLYvqmm+9KR35myydGNjNHRqKquBl1iROb+AH9/VFZVsYWgurqGL3qS/A9p5U3727Q1QNsT/gEBvPInk3h5eTkrXboMiFb7NHZIAdNtkaQsab+cLmsiJVpWWorgkBCOUFxRXonA4EA+/kf787SC/vftt2L5tysREBCAoiK63dGHrQBeCi+OPRCfEI/C/EIEhwaDbjGko4fkZ0CKPzIqEpkZmUwo/Pz8eJuEVvT0N/kx0N4+vUtbEuQ3QFsSAYGByM/Lx+LPPsHDDz7CvgS09UCXIdG3VH5OTg78A/xRWV7JBMDbx5utEGRtIVxoS4O2GshKQr4Ge3bvZRxoe6KhoR411bUICQ1BaWkp50lY0HYCkZizZ84iJDSUnxFOQYFB0Mq0iIqMxLlz6Xz1NhEpyreqsorrn3o6lcmbXK6rX21dLftjEFGitoiIjEB+bn7TCsheRyhrv2ttLLjaicrS2DMzFqy+k96B04vIyvMQIOLAFgRBEDyv8RwusSWHEms23OzfAGsiCKYmNE93NjFuKAOcyOT/x29rm95wEYaPPjYL7749r6UXrXUbltxetJ1AiSwnJhVOe7elBdxbjB1b7MXWjAXjujsbC2f1G4dPMiJDz0JABtmokRPFaSHParW2S2tri9sygbZdOl0O7VGmo2R3VD6uwMAWb1VXyOMo7JyVj7thYEv7tRWT5g7ubc1NfO8BCDQnCObMzB5QEaeJ6G4TgtMqKjIWCAgEBAJtRMCVhKWNorbp8/bQC84q09gqZgBME0EwXlV2loZuUy8RHwsEBAICAYGAQMCDETC1RdVYHUEQPLhdhegCAYGAQEAgIBBoEwIWCcII4YPQJnDFxwIBgYBAQCAgEOiACMhGCYLQ4ZrVFeGxjR3eJf8lR55Y7Ah5UucytcVn7ak6Z7dlR20vd8ed5LO2D0jvmhoPrj5Vac1p5w43oXbiCgmC0MEa39YDCtZU31m+MdaU3ZnfEbi7X+uLNrHcJuKgg/v12bZIJAhCW9Bzg2+dQQjcoFpCBIGAQKADICAIg2c3op4giEMMnt2QQnqBgEBAICAQEAjYioAFH0UIgmArmuJ9gYBAQCAgEBAIdBAEBEHoIA0pqiEQEAgIBAQCAgFHImCRIIwUpxgcibXj85JuEHJ8ztbnSLcNmZPD0jPrS2j5ZnuU2RZ5nfGtKzCwpf1cIY8zcHRknu6GgS3t50gcHJUXyS+S2yIgEwTBbdtGJ5g7EARxMUI7dRLhM99OwFsoVrSJQ9tEEASHwunozJoTBHEXg4mVrMGBZeOnLglH7Q7nFMSk6OiBZ11+AnfrcHLlW6JNHIu2h1oQ2qMbOKtMS3cx6C0Ipo4x8ArWTHdwlHI0tQHi7DId28MdnJs7EAIHV0lkJxAQCAgErELADGFwlnK0SiYnveQoHdpW8cxFpKMgbxYJgtBVbYXeju8F6HaAJj4RCAgEOgQCHmpR8GTsLd3FMHK44V0MYo/BDfcYPLnrCdkFAgIBgUAHRKA9TBrOKtP8HoPMNEGg9nQX+0d79y1nNUp710uUb4xAUFAgoqKikJgYj5DQEKhUKgGSixFQq9UoLi5B+rkM5OXlo6yszMUSiOIEAu6KgLN0kSAIbWhxZzVKk0juvqngfATaz25DdQsKCsLYcedj5MjhiIqKRGJiAhMEb29BENowcOz6tK6OCEIx0tMzkJebj337DuDvDZuZKLjDOGmPsWAJyI68jBObDcYt76zeZxVBEMGW7ZrRbPzIHSY5G0Xu0K/HxsTgjpm3YPSYUYiOjurQdfXEyhUUFGLnzt345KMlyM7J9cQqCJkdiIAgDQ4EU5+VeScEgy0GbbPrR2mLoekXZwjlGXk6i7N5Ru07tpSRkRG49947cdG0qfD29u7YlfXg2tXV1eGvvzZiwfwPQYRBJIFAeyPQHnrBWWXKDHS9joA10TA9QTAmA/QRnXF09olDccqxvbt65yyftg/uufdO3HLLDZ0TAA+s9fffrcLcd99DnVrtgdILkZ2FgKdus7iL3Ma6Xve3LjUShJZEwF2Ed1anclm+hgzLeKvH0c+MK2Uv5bTE2sw9s+cbiaw6GofWZAEwbuxoPPHUI4iJiTbZFbRaLaT/5HI5ZO0Q8a2hoQFeXl5WdVWdrACJaa+sVdU18PP1sao8R75Esms0WuhwNp9zTnYu5s59Hxv+2tQ4exnFaXFUfzcUobW+5Oq+a6o8T5DRVLPa0l7m5k6x59DmoWh+gwGQjRg+QWyLtxliCxl0BHRtGcjOxNJBeStVStx007W4/4F7zJKDkpISZGVlob6+HjExMYiObkkkSLEVFZchPCzYbskKCksQER6i/76svBI+PiooFQocP3UWfXt2tSpvkqWkrBwB/n78rT1p2z8HMGbkILOfZucWIDY6wp6sLX5DRCgtPRtdk+NbJTeLPlmKL774GrU1dQ6Xw6oMO9hYsKrO7vCSOdwFQXBq6wiC4FR4LUSidHa5In+zCISFh+KJJx/BlCkTW7xDirawsBD//PMPamtr+b+4uDgMGzYM/v7+zd4nxfbHX9tx6YXjkJWTr1PMMiAsJAjFJWWoqa1DRHgo/56bVwiVSomQ4EAUFpeCjvORMl/39w6MHz0UMVHhbDr/Z89hfqd3jy5Y9t2vmDZlDBReXpxPRWUVysorEBjgj6BAnSwNGg1KS8tRW6dGUUkpuibFQavRoqi0HH4+3ggLDUZ1TS3Kyiqg8laBTgmQ3LHRkSivqERpWQXL6+/vi7Pp2UiKj0Faehb8/HxZ7rDQIFbaeflFWLN2Ey6eOpbzLCoqhVKlYFklQlJf38D1JIKj8FKgrl7NkVgJ09raOi5DqVQy6VKr67n+9Q0NUCi88OfGnbjsovFsRbCUNv69BfPnfYCMjEzRwwUChtvlAg0nINCcIHSE1a6jQRIrBkcj2u75JScnYeGH7/KRRuOk0Wiwf/9+pKWlYcaMGfy4oqIC7777Lp5//nmzBOHPjf+gT68uKK+oQmCAH8gy4OOtQmJCDCoqq1FUXMqKMSDAH+kZOQgK8kdiXDTWbtiBcaOHICE2ipX3jt0HERQYgH59uuHr737DxLHDUVNTy4o/J6+QSQcp6wljhrLiLSktR+rZDERFhqO0vBxdk+Kx58BRxMdGQ9OgQXRUOErLylkuUt7duiTgxKmzuGDiKCYH+Y1yEkH56dcNuOLSyfj5t404f/gAVuKUb4C/LxOg39ZvxdQJI+GtUnFZFRXVSEqMQWR4KJMIsgJQHYKDArhMIi2hITqCUVlZjcJispaEoqqqBnK5DCHBQcjIysWAvt2xYfMuqwhCbm4eXnj+Vezds7/d+5EQoBMj0B56wRVlGllkmgiCIAeduLd3rqp3794VS5Z+AD8/P5MEYdeuXUhNTcWNN97Iz2tqanDffffh008/NUsQNmzZhQmjh4LM8KQYSXkXFBajV/dkpJ7LQl1tXaPCDUNhUSl6dEtkq8EPv/yFqy6bos93597DTAZI6X7+7RrcePU0JgQ+3t44l5HNK/HC4jL86+IJXAaVl56Zi+FD+iH1TDpiYyLx95bduPSi8bzKJ4sDKXSyHmzdsQ+XXDgOW3bsw6Sxw/hb+k+lVLI8v6zdzATht/VbMP3iiUxyvLzkCA/TbYF8umwVbrn2Ui4vIS4Kp89mIDQkEDFREUwCNm3fh9EjzmOLwukz6VxuXGwkzqRlMUEiUkGWEfJ1IKKQX1CEg0dPYfrFE7Buww6rCEJlZSWeefpFbN/2T+fqtKK2AgFXIWBAEgRBcBXoohy3QSApKQEL3nsbcfGxLWQipUu+BykpKejfvz98fX0xf/58zJw5k7caDJPhFgMpZVrV00qbVtGREaEoL69Ealom4mIiUV1dy7/5+Hjj0JGT6N5IEFb9+jdvUSiVOr+B3fuOID42ilf+X674BTdcNQ35BcVsjifF7Ofnw5YJeodkJatCWkY2+vbqiozMXHRJisUva7fiX9MmICevgK0Z6voGJgGbt+9lgrB1534MG9QHR0+cQXJiLIpLypGcEINf128xIAiTUFBUAi+5rBlBuJHkKSpheTMz8xAdFYaEuGgmCIeOnkJsdDhbEGi7ItDfj+vxy9otGDlsAI4cP41hg/qyJSMkJJD/JivERZPPxx8btuOSqWOgaMV/Ijs7By8+/xoHUBJJICAQcAICzQjCMOGk6ASIRZZujAD5IDz19GOYNGm8SSlpm4GcFFeuXIkzZ87goYcewiOPPILly5cbEQQNdu45xI59ew8cw+DzevOqm3wJikvLUVxciuFD+vOKev+hE7zX3qtHMk6lprNSJefG7NxCnDmXiZFD+vNzclIkxUlbDFu272PlWVxahqCAAJSWV+LU6XOIiQ5H966JTBAaGjRMQmj7wlulZOJQU1fH5ZE/QZekOBSVlEGlUGDf4RSMGTEQB46kYPCA3vxdVXU1+yyQg+Ce/ceY5GzbdRATRg/h7QvaCggOCuR6HzxyCuUVFejfpwdSTp1lIkDfEVkggkAk6ODRFCYztC1B/yd/hYNHTqKMv+sJpcIL2bn58PXxRkFRKUKCApCUGMvbJIQTyWspbd60FfPmLkR6uvBBcOMhJkTzdAQaSYJshCAInt6UQn4bEaCjg1dfcwUefezBVp3iDLM+deoUevToYWNp4nVHIUDEbeH7n+DrZSvY0VIkgYBAwLkICIJgI77mjj3bmI1Hve4K3xhjQJxZJuU9ctRw/PeJWUhOTvSotujMwtLJhbnvvI/Nm7e1270MzuyX9rRtZ4lX4yjcxalI23qZIAi24dVuE5ONYorXW0GAIilec82VuGPmrQgODhJ4uTkC5WXl+OKLb9h6ICIpunljubF4giDY1jgmCYK0SjYOXkVZO/qZYX5S/lIjuuMz2+AVb7szArGxMbjnnjtwwQWT4e0j7mJw17aiuxgo/sH773+CrKxsdxVTyOUBCLQWkNFa/eYIXeUq/Uay2qrLpabUEwRTpxwdZdbxgH4jROykCHTr1gWXXHIRpk+/BGHhYZ0UBfetdlVVFVYs/xFr1/6JkydPu6+gQjKBQAdBwNDKYpEgdJD6tr0aFOTeVKLA8eaetb1U98nBUj2dhYELy/Tz9+M7GW688Rq+9jkkJJgj/rUW1c99GqjjSEKOiBSgiU6RbN26AyuW/wA62lhVWeUelXRhv7Sqws4af1YV7sKXnIV7O9yx4kLU7CpKEARbYGNu4Ow7LW0RqD3ebQ9bkqvLlEGlUkGhVECunzTo5iMLFwK15Zlht7LV/metHdSUDdPY3mjYndpbDi5fJ7RGq0W9uh60vWB+/HWWsWCpnsJNseUgtaFfCILQAqxmBGG4dMzR3KRjz21lxkVaO9eb2yAyntTaMjFbrI8IJ2nD0BKvCgQEAgKBDoaAGTdGZ+gcS+TcHr3rSBkbZZO1IAgdrLltq44gCLbhJd4WCAgEBAIdCQErzzlYu+j1RGgMIBAEoVkDCoLgif1ZyCwQEAgIBByDgJUEwTGFuWcuzQjCUFOhlh25yWnq0GJr+bf3QUf3bDchlUBAICAQEAi4AoHWHHJIBtJjbdFV7n/QUTZcTxDaywnBXTZiXNHpRBkCAYGAQEAg4HkIOHKDv7WgAs4oy9Y8dS1kgiB4XtMJiQUCAgGBgEBAIOA6BDqHE4IgCK7rUaIkZyEg84IsKAle3a+GPHIwoPB1Vkntkq+2vhaagoPQnP0V2uJjgEbtADlkgF8U5IkXwit+ImQ+IYBM7oB83ScLbXk6GtJ+gyZrG6Audx/BhCQCAbdGoMkJoVMRBOGC6Na90i7hZN4hUPS/E/LEqZDJvOzKw5M+akhbB/WRRUBdqf1iy+Twih4JxYhnIPPq+CGmNaWpqD+yBJr8fYBW3AJpf8cRX7LZvcPDYIYgCAXa4Vu+Y1VQ4Q9F339D0f2KjlWvVmrTkLYW6n3v2F1neVh/qCa8a/f3nvihpuQ01Ic+grbwoCeKL2R2MwTaY4PBFWXqqIEJgqAV9xS6WRcU4rSGgCysP5SjnofcO6S1VzvWc60GNevvAioz7aqXasoiyIOS7PrWkz+qP/E16lO+BRpqPbkaQnaBgFMRkDUnCOMtBhN2qiSuyrwtphFX0DZX4WBvOe2BQWtlQg553DioRj5rb608+ruGzM1Q/zPb9jrIZPC58nfbv+sAX2jK0qDe8QK0lW24EbK1ftmWucYejEWk5TZFWrYHcv03HXSvwbBasuFDOzhBcPWAbVOPEx9bjYDMC/LEyVAN+6/Vn3SkF7XqCtSuudr2Ksnk8LnyN9u/c+QX0gVnLo6Dr9U2oG7D/dCWnnFkbURenRmBDkgSmhGEYY0EgdtYKNPO3NU9q+4OJAg1xWeRu+cz3nuLH/coFD6BDsGiJHUj/GMHQukb6pD8mmXSUIOan+3xvZDDZ4Z9BOHwZ5dA6R+NgLghiBvzIGR2nnooOrYGCr9wBCWP5irlHVyOgJhBaFBXoir3CDT1NQDkiBp8E4pP/oGKrP2IHnobaopSEdxtIuReKrvxrP3r/6AtTbX7e/GhQKBVBJxl1XGF9cqI8Mj0BEGQg1bbXbzgRgg4iCA01JYjbf1LiB5+B5T+kVD6haO68CSydnwIv6h+rKRSVv4bgQmjUF14Cj2u/ADVBSnI3b0EPmHdETXkFqT++jgCE0aitiwTtcVnoQqKRcywmTjz25Oory1B/9t/R8mptSg88hOiBt+MkO6T2w5kOxCEbS8GYtgjxyBX+qI4RbdNUV2YisiB1+PEtzcgtM/l0DbUIWnKc6gtzUDWjoXwUvkjecrzgNwL2Ts+QsmpdagtTYd3SDK6XfYOfMN7oLY0E6dW3Yf4cY9Aq2lA0fHVTAzOu3M9jnw+HQqfIHS7fB6qcg4j4rxrIFfYf/JCEIS2dz2RQwdHwDDUsiAIHbyxO2r1HEQQKjL3sDIL7j6ZFZcMctSWZUGrqUfZ2c0I6/MvnP75fgx5YDfKM3ejvqoY9dUlkMm9UJbxD2JH3MXKrfsVH8A3tCs09dXI3DIPAfHD+L3g7lMgl3sh5fuZ6HLRq1BXFiAgfigUPsFta5l2Igi9r1vGBEgVFI+yc9tQV5aLqIHXYc+8fhj1TDYqsg8yeVAFxsA3vCeTJr/I3vAJ747U1Y+g1zWLkfPPYqgCYxHW93Kd4VJTj7wD36DoxK/oc91XSF0zC5U5h9HrmiVI2/AaaotS0e3Sd1CVd1QQhLb1GvG1QKB1BJoRhCE6HwSRBAIehYCDCAIposqcgwjtfTEqMvchd/dS+EX3R8np9VD5RyFp6nM48d1MDLlvBypzDoG2I8iCUHRsNZQBUeh6yRyc+vkB9L9tNaryjiBjy1w2kydPfR4NNWUI7DKOTfEHPhqLwPjhCEwazVYHVUBU2+BuJ4Iw+vkSQCYDWV6yd3wAZWAsIs+7FrvmdMHIpzJQnrEbhUd+QHDXifAOTYa2QY2akjSE974M+YdWInrorcje+QlUgdEI6zsdssa8Tq+eBb/ofgjvPwNZ295DUNJoaNRVCEwei9Or7kOXaa+jKv84IvpfBbnSh7eD6Ftbk7Ag2IqYeL8zIyAbJghCZ25/z627gwhCg7qKTd++ET3ZvF1TeBqBSaOYDATGD2OycOTzf2Hg3X+hMvcI6spzeI+8tiSN9+L9YwbhxMrb0PfG5ajI3o/S0xug0agR3GUCY1tbcg4BcYOYeIT2uZS3JXxCHHDEsB0Iwo7XYtD7ms95K6auIpeW/ig7t523GA4tnoI+N32H+qpCePkEMYEgCwr9HTn4Jij9wlBw+EdEDb6R/T3UVUWIHnY7FL6hKD3zN2oKU+Eb2Rtk0SFiENr7UuTt+wpdLpqNlB/uQvzYWSg5/Rf8InrBl//rCZlcYXP/FQTBZsjEB50YAUEQOnHje3TVHUQQCANSVkXHf+Ftg7A+lzJRKD2zCXKFD4K7jkfBoe8RPezfqKvMh6auEl7eQSg9u4kVVEi3SWwajxhwLdQVuSg59SevqolcyFW+TAyCksfxqrf07GYEJo6Ef1S/tkPfDgQhY/Pb0Gq18A3rDt/IPowXKXNyONz//jB0n/4evLxDENprGhpqS1F8ch2UvmHsWEipKu8Y/GPOQ1XecZRn7EJIjylQBcYh/8A3bIVQVxWirjwLGnUNEwAiIpSKTvzOzp6lqRt4+ycwYQSCksdC7qW0GUdBEGyGTHzQiREQBKETN75HV92BBMETcdDWFqP21xvsEN3+UwyWCtsztx+GPnyISYO7JnKgrPv7IWjLxDFHd20jIZd7IeDxBMHZDhSuOFniXl2ipTTtgUGrZdJ9Ap04UFJ91jaod75kR9eRw9fOY46WCqvI3Av/uCF2+QXYUQm7PmkoOwf1jufbFCip1X5pl2T2f+SsE3X2S+ScL90Nd2trabuXjLU5u+Y9jyYIziYHrmkCUYq9CMgjh8B7zKt8hK6zpep1/wEq0uyqtu/0n4FOcEmTMTjqE8tB4ZbRQHEWRBIIuAYBTyYJJgmCpHgNWZtUSUc/M8yPmov+NlWWuWf6JqbobJJXs3GktvZ4RoKRPKZk8bRnDL4FfKVGcDXuCn8o+3W+y5o0FdmoXXe75Tax0F6y4B7wmbLQNbOjm5SiVVdBvW8uGjI36SSyd1y2NhZcPddYGnueNs9YahN3w93adjbo/4Z6zZxutUX3Gecn6Uhu9sZy7dXXkth6guAxq3GpE7ls4vFU45YDATIkOsbZWnrWJhGsw10W3BWKXjfAK3oEoPSjw29NRLFN5bvRx1q6Sk0L1NdAW5aG2p0v0vGIJiVnq6hyBRTdpsOrxwzIfCKaIiLacQbzLVUAACAASURBVGzQ1qJd+T45VEJTD211HupTlqPh3DpA08brnttlLFhCrZNsMrgd7nb2ZA8YY81DLTcecxQEwc4GF5+1PwLKQCi6XAJ5SHdArgQ4BLCxLUqaSA3/L3Fuc8/0y7NGTm6Yp7lnjihXyqPx/0QQNGpoK9JBVz1rq3Lbjjk5eUYOglfiVMgUvo2kyh6MjGR1CO6W8rShTYgc1JWhIXsrNLl7RSz5tvcakYMjEHBzktCMIAw1jIPgESzBI4R0RDcSeQgEBAICAYFAh0PATq8E64yqbUPL+C4GPUFwS73rlkK1rQHE1wIBgYBAQCAgENAjYCdhcBaChqGWBUFwFsoiX4GAQEAgIBAQCLSGgDsThMHufBeDsCC01rXEc4GAQEAgIBDwZATcjCAQlI0iyYY2IwhCIXtyNxOyCwQEAgIBgUBHRcD1TggGBEGQg47arUS9BAICAYGAQEAgYB0CTRYNQRCsQ0y85dYIyCDz8YNXTDfUyv3gK5Mhyk+OIG855G5ovXNrKDuQcDVVlSjIyURpcQG0Gk0HqpmoikDAmQi4MUFwNzuGK4w6zmxqR+TdHhhYW6ZMoYS2+0Boug6CV69xqEQYghvk6BuoQL9wJfrFKBHgQ3ERROpsCJQW5ePUkX1IObAbJw7sQllJYZshsLZftrkgKzPoJGGSeEvcnG7wVAxMye0e6xk3JQjuRg6sHKPitXZCQOblBc2Akai+6GbUByQClVqgCkAlIKvSIkwmx5QePhjTyxuBvoIktFMztXux5SVF2PnXL9j6x08g0iCSQMBdEXBDgjBOr5fbei+CVDmr71MwFSja3VquI1JXWzFuDwysKNMrIRl9H3wSw3v2wJ/n6pCSV4+7e/iirFSD5btrMSBEgTAvOfonqnBeF5X+qg5bqy/e93wEKstK8ePSBdi39c+2bTdY0S9dipanLp9tBcndcLdVflPvW9t2FD2+8XurdWvj+7Z+ZyymbOjglgSBXjKU3bgeDnsmTAaO6GadMw+ZHEHDRqHnY/9DVTUwKViJ9WfqkKTyAmqBjLwGDI9UYNmmGozs4o0rRvvC11tYETpnZ9HVevfGtVj12XuoLC/tzDCIunsaAtKRQ4NtFmfpZOsIgr1XQNn6nac1VGeV1w3Zu9bLC0mTJiP5P4/h14w6zOnjj6UHa3BvH19UVWmwM1WNbcfqkJ+rRZhCjkeuDkJMWOe7FrqzdllT9VbX1WLeU/cg+1yq/bC44ViwvzIe9GVnxr2x7nxfFTWZCVO/pWfcysareuN8GvM0viZCNkSyIIjVvAeNFiEqEYT4CZORfO9j2JBVh1d6+mHxgRqczGnAqDAFLknyho8MOHa2HpsPqXHnpYGIDhUEoTP3nOrKCrz3v/uRk36mM8Mg6i4QsIyAgSOEIAiis3gmAnI5/EaORa9ZT8G7Toa+PgqsPFaDqnINZp3njx/31+CSbt44kV4PPy85hvf1QZCf2GLwzMZ2jNQpB3fjm/dfQ2lRgWMyFLkIBDoiAs0IwqAmH4SOWFdRpw6MQNeeSHjgSQxPTMDmdDXO5DUgWSFHZZkW9eXAxEQlSgs16Bqjwug+3pCLoAgduDNYrlpDQwPWfPUhtvz2Axrq6zstDqLiAgFbEJANEQTBFrzEu26EgEzlDa9Jl6NywtWo0fhDZnjMsVILRS0wPE6F6cP8EBksthfcqOlcKopG04Bje3dgzVcfITcjzaVli8IEAp6MgCAIntx6QnbIg8Mg7zsclcP/BbV/PDTVMsgqZQhukOH8OG9M6OGNqCBBDjpjV9FoNKiuKMfBHRux8ZcVyMtMtxBupzMiJOosELCMgEsIQnV1JXLzMlBTU4WQkAhERcajoDAbRUV58Pb2RUx0Iuob6pGTkwYyBUZExCI4KAx5BVkoLyuGn18A4uK6oqqyDFnZafBSKBAVEQ9vHx/k5KRzvgEBQYiL7Yqi4jwUFGRDpfJGdFQiZHIZ0jNOQ6vVIiQ4HBHhMZxvWWkRvH18kRjfHTW1VcjISIXcy4ufBwSEIDMrFbU11fDx8UNSUk8UlxQgPy8TCoUScbHJ/P/UM8cgk8kQFBTKdcovyEZJSQGUShW6JPeBWl2Ls2knIJfLERERh6DAEGRkpaKmuorr3SW5F0rLirgOVDbJQt+eOn0YdGg/OCiU65CXn4GSkkJ4eXmhZ4+BqKmtxtmzx7nsqKgExirt3AnU1tZA5e2Drsl9UFpaiJzcdH4nObk3vFXeOJFygHtDcHA4Y56dcw5lZUXs4dqn1xDGkeSlFBUVj7DQKJxOPQK1uo7l6ta1H0pKC7gtyZM2OakXfH39kXLyIGiVFhgYitiYRH5eWlYMaLXo3n0A6tV1yMhMRUNDPSIj4xAaEolz6Se5PGqnhITuqGnsI9T+8fHdEBgQjLNpx1FTU43AwBCWhzAoKs6FVqNFUmIPeHkpkJV9FnUaDUK69ENYVBLycim0bhH8VD7ondwF3l4NyMvPRJ26FlGRCQgNDkd27jmUlRfD3y+I2626pgL5+VncRwhPP19/5OVloqKqDEFBYYiOTEBpaQH3G5XSG5GR8VB4eSE3NwM1ddUICdb16cLCHBQW58Jb5YvYmCTuy9SPKN/wsGjuf/kFWSgtL4aPtx+SEnuiqqqc+4SXXNHY94KRmXWG+6SPyhfJ1EeoLfMy+J242C7cd06lHoIMMl2/j+mC3PxMbhu5TI4e3QagvkGN1LPH2Hk5IjyWyz977gT3HYWXAj26n8f5EhaUkhJ68jg7nrKP/w70D+Z2yMvLQFGJLrgQ9RHqC6fPHOG/CZfQ0EhdO9VWQ6lQoXu3/jy2KF8ttOiS1JvH0ImU/fw39dXY6CTum6VlheyQ3bvnYNTV1XDfo3foeXBwGM6cPY7auhrGs0tyb64ftQu9061LX6hUPkg5eQAarQahPK8kIDsnDeXlJfxOr+4DGd9jR3bzPBIdlcBtlXrmKNfD29sHSYm9OF+aj6hfUTlKpTe/Q/2Vxkp0VDyPlfKKEu73PboPQG1tNTKzz0LT0MBjieSl+YDy9fH1Q0JcN5SVl3B7U5hnzlflzeOW3qF5MDIiFnn5WYwDtRu9U1+vRlZOGurVapaXyk/PPI3qqgoea9SvqqoqkF+YzVsl1Ea+Pn7cZ2iepf5K+VKdaH6Vy70QG5vEfUeag8PCo3XzYF4mz1fUPlQWlU1jheSjccpzcH4myngODuR6VlWX6+YruZzHCn1LfYRkonEaH9cVRUW5XC+aM2hc0HydnZ3G+QYFhyMqMo7HSnFxPvdlmk/r6+uRnnGK8w0Ni0JIUDhycs+hsrKc8aR+xP015xznR32PyqZ5hOT29w9CfFwXFBTmcvk0Pycm9OBtxdOpR1kP0LwTHhbD+VIfofmD2rKqugLp6af4Hep7NP/T2KF5i8pOTuzFeoXmCBpQ3bv2h0KpxIkT+3kc0Bgg/DpicglBqKwsY0VIg9PHxxcymRxarQYarZYnMOrENPKI8dOEQYOFFBsNfJpcaSKkjkP/pt/oG8qD3+FvTL+jyxesvHT5ysyW3aAxzlf3jamypXwbNA2NspjLF2h6x1heXb0N62SYL8ltSl7q1PRNy3wleW3Pl8oipSHlqytbzpjTJCkF5zCUl97xkntxG+jfkcn4O6ltpXeat4F5HOg7KstLTu8YlK3PV8t5694xbltdvtb0q6Z3mvoV/UbJuF81tUFT3yNcqGdY06+ofxrma1w29fuWfU/q06bbkuoJmRYKpReUCi8mjjwOaGzI5LjqqstRXFyCtLRsvP7GC9i3bx/CwyNQWVmBY8eO4frrr0d2VjaOnziO0tJSfP/993juuefx7bff4tdff8GHH37I5Obw4SP4z3/uxosvvojLL78cSxZ9jePHU7jvmesj1D9JFhqnhu3f9E3zsWL6HamPmO7Tpvqe8Vix3Pda5mu+X+nkleaipnxNzFeN84zhnNFavi37q+F8ZX6OMxwrur6o6zOG/VXq0039VXrHeKzoxoGpOdjUWDE7B8tkPC6l9tfN7daOFUtzpUzfx1uWbfs83aRXJN1jqmzT+erbXwYeI7TAInKUEN+tI/IDOJ0g0GRO7Le8ohShIeFQqnxaAGltQKn2aIHOfPxWwrs9MGiPMtujf1kqU0eEmV7Ay0sGpUrBJKi+vgEN9RrUN5i+gEipUPCKbOjQQZi34A389ttvCAgIxMCBA7Fz5w4MGDAIlRUVKCjMQ1JSElJTU3kCHjJkCK666mrMnfsuT35HjhzBDTfcgLq6Orz11lvo328QvvpyOXJy8pqJLRHIznBS2t36pTvPnY4cT+6Gu1S38vJitnLExCTZXF1HtJ3BgQOby7fmA6cShM4wYVgDsnhHIGALArwKbDxxQRYCMlPV1TXwysya5Ofng5qaWvTo0R0vv/IsIiPD2XyemZUNb28V3nh9LsLDQ3HHzFuRlJSAM6ln8ddfm3DljMsREREGlUqF6upqqOvUvCr19fWDQuGFkpISqOvq8fzzr3H+tLr09fXF2bPnUFLiftEJHTEBW4O3eEcg0J4IOJMkmCQItgZE1Md71pqmBLRHRPtPtD8umYabAcphoNyUTliSzZ3ldmSPbQ8M2qNMR2Jma168jQJ4eckhk9P2jgxqNVkKdOb85uNFZ1VgC4O88f+87QAolUqMGDkIOdkFqKiowsOz7kVkZBhyc3MxePBg7Nq1F1FR4QgODkF2Vg6ioiPwy5q1OHDgCIYNH4D//Ocutj7s3bsX1VU1CA2jb3MwbtxYbN++HX5+frwVFRkZhaysbPTs2R0b/96GhQsXu90YvnDaFKScOIVzaeSc2Pw2QN6m4e0qo+mVtjTJLK4laqRLOiOObo7SRbLTIio6EoMHD0TKiZM4m5aOyMgIxMfHYv/+Q7qPXDWfiTlI3za2DjlHvE++TeQvQv47NidntR0tMBqFsVeXS3XREwRzGRmq7VbvYDAzKMgEQ05hYWFR8DaxxWAzsOIDFyPgrgY+F8PgtOJkUCrJn0NXAG0daHj7oAl3UmhEHuRejcqL/HHYoKDlbQedXwLYQjBhwvnIzMzl1f7s1/6H4uJirFixAnfccQe/R1sKWVlZmDp1KvsgpKScxM4duxAaFoxJkyaia9eu+OWXX1BYWIh+/frh448/xnsL3sOhw4ewatUqREVFYdasWTh9+jROnDiBESNG4tab73EaOtZnLIOPjwp1ajXj98ac5wGtHKdPn4FGo8XJk6cRExMF/wB/9pWpqKhAQGAA6tX1KCsrR2BQIAoLCpGQEAe1Ws3FkqWEgPXz82Wfkz9+/5O3eO6861aMGTsKBw4cxsmU00hOTkRkVDh2/bMPFRWV2LplB3Jycq0XXbzZCgLuOQeR42RFZRk7Z7pNapxIWtXXjQIbI2tImZsThDYv4k1noCcIoVHsOSySpyHgnoPT01A0JS+tVr29vaCua9A5rGqaxtD48WPg6++DzZu2ol5NWwxEBnQLJvIQn/Xo/fh08ZfIzc1nc7+UgoODUF5egT59e+Gmm69CZmYGOycmJCQgMzOTtxCINFx77bXYs2cP5HIlzp45h/MG9sWBA/vx0EMP4aOPPmKiQP4H+fn5CAsLYx+Gv/76C9HR0UwcaMtj+fLluO66G/Di82+2oTl0U5KubkR2dFk1xYU3mLKk1VHjDXeGt9uFhYWiX/9eyM8vxJHDKbhyxoUYNnwY4uLiuA7R0bFoaFCjqKiIZY+Pi8e69etw3nkDoVR4Y+++3Uya/P39UFlZif3792PAgPNw9OgR1NTU4MILL8Sij7/AsBGDoVTSCaIohISEMLZknaF3iHglJyVj5cpV+Obr75u1SxsAEp82u0zAGI7220zSEYRSxMe5k5NiGzYdDG6O5DEoBUpyjEXMNEEgD2Y6DkQezjqvVpEEAgIBH18lNA1aXpEaEgOVtxK+vt5YvHghfHy9UVRUwuSBTP+0HTBx0ljeYFix8hvcc899DGRtTQ0++fgz7N5NxxTptAfg4+ODmJhI3oaoqa5BZWUVYuOiOa/CwiIEBgSirLyMyQml4OBAKJQKKBVKPnZMjotENvLzChAUHMj51dbWsYL19vaGQqFAWVkZr8ZzcvN5i0RS8HwaRE7bJk3+FFQGlU1chv/PhIhOXzT9rfvdmCAY9hXzkx/5XowZOxynT6XhzJl0XDRtLJ+4uPHGm1BcXMSkRlLi4eHh2LFjBw4ePMhWgoAAOkodi5ycHMyYMYPrumXLVgwZMhgbN27kOt9yy218ouOhhx5guWNjydJQh507d2Ly5Mlcd7LU3H333fj551/x4cJP2dlTpI6LAJ3goj5Gx5/dJ7WBIDQj5o0EodkNUW2qZZtNEG0qXXwsEPAUBPz8vFkxaTS61Q/5HHh7K1k51taqoVQq8PvaH5GVlYm5c+fi9ddfZ7M/rYZHjx6DBx98AGfOnMEFF1yAf//732zuLy4uw6dLvoRSpWXFVFRU0eipwJSB98X1R4obGo8Uy2W6Z3SUmI+p0ZE+nTx8xJiPreq2MViZa4io6I4fSxYPPtbWqOib42/KeGlqM9NxrUbOlA1UN60Wt8+8DhMmjMf69esxZswY9OzZE8uWLUNGRgbuuutuzJs3F/fffz9+XvUrzp3Lwu2334wTKUcxdsw4vPb6qxg3bhxiYmKwZMkSJhfnjxqD71b+jKkXTMDWbZvYokAWg6qqKgwfPhzz5s1DaGgohg0bhpMnz+Do4dPs2CmSQMC1CLSNIEgODOzjNHig4V0MzlHwFMCDApYEBoW6GdNybbOJ0gQC5EdA/gZ1dfX6LQOVSgmZHKip1u17UyJL29+bfsGpU6ewaNEiPPfcc6zoaNU+fvwEBAT44+KLL+ajiU8++SSWLl0Kb5UfNm3cCZWPFuVlVSgprtTnxz4KjSt4U63A91TIpNgbun0M+oYPUzSa9Ukm3gZoPGEhEQT9/zW6WBE6C4HOKtCUmv7tGGtly1qQvIQlrehoS2bEiCHscBgYEIC6ulrMuGo6YmIj2WFzwIABOHMmDU8/+RL7G4weMxK5eem47dbb8Phjz/PJj+LiUt5uIMsCEaC0tHQmA4QDOSQS2aLgZOQMSts2kVFhKMgv4rL8/f1bHAcVvb/jIVBRUYqq6koO/tQxUnNy4RKCQIGS2EkxNFr4IHSMXiRqYSMCpFhpdUtKjE4nSPvttJ1QU12nV6aslHn1Dsyd/zrefPMNJCYmoXv3Hkg/dw7nnz8KK1auxPjx47F37x7MvGMm1q5bh0OHDiExoSuOHklh5zspUZmkyHr17o7QkBA+xVBXp4aPrw8751FZVCY52JUUl7GzniNSkz+BzqegaeuBGUZjQB/piICuRMkqoTN2SCcGJOtH08EAHdWgl6TfdL+EhYVgwqTzcS4tC3v3HMJ/n7yPT2NMmjSJtxMuu+wy3kp44YUXQFsMkyZOwYL5i3jbgRIp/by8Ar2DoiNwEHl0bATc0wehLZi3A0GgkLoUzjIwIISdq0QSCHQqBGSASqlgQz6tbMmKQP/RaQXpGCOtSqVVPD+jI44NGiQkxrP/QFVVdWNkywb4+fuirlaNwMAAjj9AsQtKS8vZH4AUa8+eXfl3OgjRp08P3qaYMGEM+vTpha+//h5xsbHIztGFwqW9djq6WFNbjl49+/MWhScmIiF00qB3n+7Iyy1ESUk57r7nJgQHB7ODJcV1kJwuyWeAThiMHzcRj8x6inEWSSBgDwK0+K2uqeLQ1R0jmSUIztleINCkMLC0kpFMnR0DTFELgYBlBKi/K1VevHdPiogc/yiRYyIpc4VCF/eAnpOS0/1uOk/JvK9z/NOtwqVz+bpvdL4CN996Nc6eTecthmuuvQwLFy7ExIkTkZSYhE2bN6FPnz4oLCzGkSOHMGXKFERERLDz3ayHH8eHH3zaIZqUnCv/9/xj6NmjB/7ZtRvR0ZHsT0CmfzqZcfLkKWzdsgurf/7NaCukQ1RfVMJFCNDRV3Iwpq2/jpOaSILBFoPzCAJdWkR7dT4+/h0MyI7TJURNHI+AZCmguxZIkxMZIAc/HVGQ810KZObXhU9uuYrldxRy9gGgc/3SSleKeyAdA5QIBe/5y4CuXZPYATIwMAgPz7oHX3zxOQIDA/Hwww/jtttuY4Jw9dXX4LHHHsU999zDq2xygnzufy9g9ivvOB6Idspx0uTxvK1DpzemTZuK0WNG4Otl3yE/v4BPhKxf/3djvIl2ElAU6/EI0CVl6joaayEeX5emCriYIFAcBLoJjW7TEnEQOlA/ElUxiwBZDYgUkOL39qa7EUjB05E3GVTeCr5LQef930TMaYtBpVJwMCTyU5DIA9sGWjj9tQ5+jx7d8OLLT/PxRSorIiISKSkpOHb0BKZeMBk7duzEgAH9eV+eoiXSCvuiC2a0nrEHvhEaGoLQsBBkpGexBUEkgYAjEKBLCGmbgW5Z7TipBUGw3nqgN38ah2nSWTh1yegZAUiXWpCTIoVbbh7DtPnr+qsDjfOT/jYVQ9KJzzgaphlZLD0zhQP/Zm/sy3b8jpvTMCKNgSzNDrIZytjGNvFk3FW8pUC3vWng5++NqsoajnpIv5Pyr6ut1zvhEX50vJEsBTU1ar2VQILbIu4m2oRwO3/0MJw6eQbJyUl4862XmBwQCfji829xw41XcTjmY8dO4sH7H9fFJZGCDmmBisrGkw8m2tKT28RRY6/VsWBmnOjLd/D8pR9/psaeibnYUTgYz+HOntfcDXdJT7GTYkVjoCTDtrWinc3OnU5sy6bgY9bQGRkdcxxrNTuwN14C7dNQ4BWFl1IESrKmXdztHUuBytoviJl7odQ4IZAzIilcIgdkDaATCjQovX1UbBFQN24lUKAjXz8VWxDoHeOkV8YGjv40/uiEIZ9MoLDLcl3cAunYIeVBxx+nXTwZFeVVOJOahXfnvYb9+/dxYCOK9vfDDz+wl/6IEaNw4/V3uheGniCNGAvt00puijtF5iTLoMqDrhCwhSRYJAiOOq8s3b9Nk1nj1Sft08lEqQIBZyFA4Y8VXuxbIPkc0MqdAg0pvb1QXVmnP1JI1zaTTwHFQpASD1opzDC5EtDFTQovKBt9EIhwSNsUBlGVTdYmISEG2dl5GDJkIBa8Pwc//fQTIiMjOVjQ1q1b2VEvLCxCEARn9QWRb6dBgB3woYGX3HOdFC0RhmYEwVGEwLh31NRWgYIlBfgHi2OOnWbodJ6Kyr10FylxFEKNLlSwdEKBfAno37TiJ+dCDpms1oXfZRLApxp0UQnp32QV0JEB86cZrEV22PDB+PCjd7FlyxbOv1evXvjqq6/YSXHUqPPxwcIlHPzn+LEUcfbfWlDFewIBAwQqq8pBx/jDw6I7BC7GZEFPEJxFDgi1yiqdD0IoBUryIFNMh2hxUQmnIsDBj+QyKCh2QT0FQGqMWAgtOyJy6F+NlrcGpABJUsAkMk0SKaCQQPVqXXhgW5KuqKbLjegvypsuXaJTDCqlD95652X97Y1Dhw5lS8KaNWswaNAgDqi07KvlOLD/OAoKCm0pWrwrEBAIAOh4gZIML0kDZIMkHwTb5iabOoewINgEl3jZQxAgHwPS6QqlnC88IkdDMjkSISDCwMcS6QijuoEtA3S/Ap9coLsNQEcbzV/kw/4Fjdc7/z971wEfRbl9T9qmb3oD0ui9CIKAgIKIIFXFJ9h791mfPnt76l+f5dl9PuTZwf6kdxXpvffQAkkI6ZtkS8r/d+7sbDYhPbubTTLjDwnZ2Zlv7nwz9373nnuOMCuSR8Ha9cCfVd4DxVRWAATxCV6emHndNBzYnwKTsQRvvfMPrFu3TuiFe/TogV69eklLY+fOXURp8Ksv58DPLwRpp9NbiNW1YWoWcB8LUEKAGYTwVpJBsH+dyJulX5/6gxQbe1s0oqTGWk77njtaQJFb9oYXAwIRBiJeQOlOYLmBBEbEC3Des7Tgq/MRemN2NCrOvXI0zpZI4hf4W2YdGFgo+AWFBlntCqpQOqxQPKzOPjExkSL33LVbF9xz782CQaDU88SJE/Huu++iU6dOIj5EESijsQQo09l0A+LiYpCXly/MjdqmWUCzQO0WUIiSmCn0aV2mUtccrggQhCjJbCVK8mq5YI7WNQO0q2mMBURsSecleAOLpQQ+Oh9RXywvI98Bf6YIU5kIMpFdrajYVNHaKrgDhQeBLY8MIkxGSyUuhMaMqabvkHq4d5+eQufMgIbZjIL8AvTolYQZM2aIwJOxuBR7dh8UYaKQ0BB88OHrKCoy4uEHn5QShD5Ej0JDoZANaZtmAc0ClS3QOomSKq7RJRmECgxCNHx1/toc0yzQIi3ALEGAv6+0NUm7uwfEwfv762AylQo7HzsUGDyQ00DNFHA/P3+dlBkYTBBv0KCtAa2kPMfNt/5FCIHS07IxcfIlmDt3jggWHT9+XIIWBjAULlq4cCG6deuGRYsW4dFHH5WMQp8+fTB9+nTcd999mDZtmoAXqWOweNFqZGflNGjY2s6aBVq7BVojBsH+nrkkQGCdxlCYh9CQyBbVL9raJ7d2ffWzAJ0uOQtsUUF5OSwlpVYthHKp9fv6+UipwWImdbISPNgHC1UFgVR1Q45A1VPgzzyXKtxEvQUvqi2KumO50iFhZV5U1Q6lWkHlQ1WLwdMDEydeguzsXKSlncVl40dhwYIFGDx4MK6//gY8+OBfkZSUhHHjxiEzM1PEmuLj40WuuLCwUPgS9Ho9/v73v0tQQVAjaZo/+fgLHE05UT+DaXtpFmgjFqBKMRfAcTGJrfKKXRIglJRYYCkxC6paFatpldbULqrVWEBpQfQULgKCEbmpTp7lBAIDlBKDHW2yiC+xVZGgxRLZX5VTVlsc6djV9kbRWbAel/uWlp6LT6jNoH5+vhhywSCcOJ6Ko0ePn7Nrp87JePqZRymXhmPHjmHkyJH4xz/+IVkCYhA4ll9//RVXXnklAC/k5CgaBUOHDpXOB3ZCMHiYPfsz7N51rFBOJAAAIABJREFUGAf2H2lR97dz52SRb3aUhHWLunhtsC6xgNliAv1bgH+QS87n6pO4JEAoLS0RJkUfbzIpKmp22qZZwB0toHQbeImQEp294tArOg6kHRHlUtNXmRHtV/kMHNjSSGevAg2F9dCDqqaKoqO9/kJdNggPD8OkyeNhMplk19DQEBEbioqKFNbEK66chG3bdmHjhi0SfP/y83yUlppQbDSjrBTo2683Bg7shx49u6JTp2QsWbxSSiRGo9HKt1ACKh/++ed6nHdeP5FM5mfMLLCkwOwFqZl5XHfHIdDOSUkdcDYzRzIi9953q7SWZmVl42jKMfj6+UpGhAEaSy3FxUbk5uRi9Z/rkJOdW9et0D7XLHCOBRgc0L/5+rbO0nmlAKECXd1AUulqibkrjmE0FkoaRh8cYSVKqkxUra6uFOs3QORB9neuSIFQ3tZAiF/bZ8q1uJiY3UnnU+5PVVsr/z733jnmnrjS7nQs/n7UQ/CS6UdHq5yfjr5UbqNwGVgxBOxckPKBF7sYyiWTQMcv3QxeSn2BpYAKMaZz57vCl8BjKmqNDCBsKo0ij6B0LwwadB5mzLwCyckdsXz5MuEvCAwMwpo1f+LSSy8VR07HvWPHDkREROCdtz6AyWKAsdiCnGyD7ZEiq2JQYCDWrtsooEXb1gB8Q6VHs+qrsiHHcZKjiY2LwfmD+yMj/QxOHE/HNTMni43OnDkjJZd2cbFYumwpBg4ciHbt2uHzz7/ANddcgw/f/w+WLFlpN8drJtKv+1mo/jlx1rut4vmrB/l/He/pijG637vL3eyu+imWzouLDYiK7NBgX1Tzu7N576XK5SLeWO1iqMkBVFAjN16JhxgE1mrCwghS9KvCLl9dUOBEtQq1Z7zegYX7PSyOuCeOfRk4434pdo+Li8XVf5mG7j26SvqbNfISiwWsz5/NzEJgUCDKSkvhH+AvCP3nn3sNJqNJOg2UtL0KCKx46OiUAwJ18PXVwZsOnXV/hetYuAboQOn4Vc4C5TMlA1DCY5IQycpTIE69Siiozhi1pVFgA1acALkH+KyRC4F9j8KIUEFjUEG3bHWi066YgNIyE26//XZ88803GDRoEPz9/YXbgNLN3NauXYsff/wR5WU6HD54FN4+HgKSZODSljZ/fz8kJsVLNiDrbA5uv2smrrjiChQVFVkxHGV45ZVXMGnSJCmz8Od//vOf+OTj2fj6q++tmR1nBfXOXvw0r1Op/E5yp7E41+75+dmCr2sX17HBAULNi+HmtV89AgTHvlbMZiNMpmL4+wdLau/czQ2WHzVespuqhDj2FtVxtOawgXLO2Nho9OjZCdEx4SATIMWGRo8ejY0bN+Lmm2/GqVOnhAWQjrdXr954+MGnUFZuQWSkXkoBVTkH7CkIVOCfcA9Y0//EF6iBhZAeMTNQxuDA+rPQKFdmG5NXkDUjYG9I9VxqNkL9jOOyxae1Wt4D4y67CEdS9iE6OhqpqamScWC3wWuvvSYB05tvvoXc3FwYDAX48P3ZWLt2g2Q6aitjBAQEYPbnH2L9uo04k5GJGddOl1HcctO9OHMms5YRNcc8aNhEZ/ZH4V0pxyuvPYW9e/dg165duOyyywSUeeLECQFsDh8+XIIDYjI++vAzfP3Vd/K9ujd3s4E7vzvrtmb993A3uysjZ3acLfwh+oj6X4ptT/e8d9UGCJWuzrogVP6qiWLRPS+uEXfJDb/ing9DcxiKdeMhQwYgNCwAhw4dwtVXX41///vf0oIXFxeH9u3bSwp5/fr16Nq1B77+8gecPp2BwCAdzCauoiuzFXp5eSMw2BeBgTr4WINVruZZNrBI+6FaGlBKS1IqsHYQEHOgkhXxIVIBiKqyoppNkKeG35Hvszyh6CrIH7X0wExCmVq+qtmydHiBgQE4b2B/JCbFYueOvbjr7juQknIQP/+4BJ27dMTQYQOwfPlvOHjguDAiEkdAoiNqMXzy73ckkKBo1LxfF2HipMug0/nI78hzEB4eLien8wwNDRWsw9VX3Szlk4ceuVcEn1jGYOaG2Ifo6Ejk5ubhk09mY843P7pgSjT+WeC4OV5DYREMBQZERITBaDIiIT4eJ06kokM8585Z4XmgLbStvhZo/D2p7xm0/aqzgHPsLgFB1SSw9fQVGIRqFzWO4V+WLgaLCTqdv9bFoM38BlmAju2ii4dh8JAB2L17t7ABrlixHBdfNBpvvvUWevboKVLK4WHhOH78GBISOuE/n37RoHPQYQYE+ir4AWYDPOnIla4FFUdAbgNmGRh0sLxAWWfux6DCYragpFTpTlAKDtbgolZtBe5MjQbKNbPKQTEnnptHUMoOLKMIzoPAR08PREVHoaiwEJYSC9rFxeHYMfIa+CAiMkJaFMmAyGuZNm0Czp7NxqnUTLz9r1ds7ImjRo3CypUrMWTIEMErkP+gS5cuGDBgAPLy8iTIOv/88wW899/ZX+HOu27BrFmzpKOBGQt+n0JPTz75JF5+6f+QejKznqvuBt0ObWfNAi3GAmYzuxjMCAgIbjFjPnegaknDWiiq+GdVDELVrzomQKDilSLWpGIQWrAttaG73AJE0ev1wQjWB0k5gVTCZzKyEKwPRlFhEbx9vAVDwJX2yZOnZXXc2I0tjb5+3kKRTKdtn0XgMSnRzHOxRVGCA+IhmE2gEiPhDFZFR45BEWlS6JKVzIPCZeDs7fzB/XDo4FF07JSMDz96E59++qlkWwhwJJiRtMvUZVi9erWULvr37y8Bwh9//IGYmBj4+vrhvffex1/+Ml04FNjVMGXKVHz44QdyLddeex0WLliKQwdPNMnWzraDdnzNAs62QF5+FgoL89EuLtnZp3Li8e0iAisBnHoyj369h1ezznHsS6yo2ACDgURJERpRkhNvc2s+NFkMvb28BHjnCifLFDspkRUZZw9Zx9sAj8QXljE4KBUNBgYBgmEgeZLsS00FRdmRn4sMtLWMwbErAYWn5BqUMoRzgoekpATcetv12Lp1Kzp2SkJoaBjmzvkOhsJC3HLLzVi/fi3axbVDcnInFBgM+PGHH5CdnYORIy/CieMnERIWhP379kvrYFy7dvCAF5YtX4QRIy5C5plcbFi/pTVPOe3aNAvUaQEufLkAjo1JqHNf993BvnRROZvgkgCBJQb+8dH5wkvjQXDfeeKGI1N61smdoXARNFQSuamXpAYminKjwAsFTMBuBgYOTAhQpMnHRwkC1Foef6ayorArCnZBGQmvR5gSqwkQ1LZYfsZjSwukFQWkZjLUbiP1XFXtweCDGYT8PAMKi0wYMWIwTp48CZO5CGMvGYc5c+YiKjoaiYkJ2L59q5QXTp3MxPbtuwR/wADGbDbLeYk7YPamU+d4REXFYO2aDWjXPhIo98HhwylNNa3Tvx8VFYGsrJxKZRDaNDIyog4wJq9dJ90ixFtom2aBmizA0jmzhf7+gS3YSNUHCPK+6tvbXs3RsZkD1WJUvCJQiwAxpm21TbNAfSwgwkY6bwkMqlIV1+f7jtxHYVX0FEEmhfNAKR+w5MC6v8qFoAQzSlBg6932KJd9+Bhy/9quRaFpVsoSavujSkFhT8ls/7P9ddIBKloMacjIyMZfrpksnR5shbz//vvxxhtviCbDs88+i82bNmPDxi3whF+1TIzqcekoleChTMiZDIZCR5rWaceaMu1SeMIHv/22Rhx9WFgorpw+GSUWE5Yt/UNKU4aCQvksJCRYgJ3EXyR3TMLkKZfh8KHD2LRxh9y3/IICzLz2SqSnn8WC+UucNmbtwC3LAiRJUsTZdC1r4DWOtkq5oSJAcE5wwHEUFRmsWgxaiaGVzCKXXIafHx1v8wcH9hdLlkX+oQPn2Mi4WGJRJF8ZBIiyY3k5dL4+sk9xkcKAqLYOMT5m0MNyCYMF/qlt4yo+MTFenBjxF/VpxdPrgyRASe6YiBdf+ruAEd977z0JCi655BJccMEF+PLLL5FyJAVHUlJQZCiVLoiWvpEHYdjwgUhJOYljR0/i+hunYeDAQfj6668xZfIUrFu/DmPGjEFq6kls2bJV6Ka3bNmCESNGSocMWSsJeqUk9ptvvYmFCxcgwD8Q2Tk5kk1YuXI5HnroYTz5xMuaHHZLnywOGj/5fcjz07JLDFWNYVdmcEUGQQMpOmg2tqHDUPyIbYWkLHa3jTgDATISW1BaDrOFKUYfFBpMkprmyt9oNEtZgUEOA4LCQlO1mQMl4PCWoENJ7ytBA4OM9u3jUFpWgrGXXoihQ4dj3drN+OXnBQiPCJXOBu7z+j9fwJxvf8LiRctFO8G+5JCcnIhnnvsb4uPbC/8IV//cOG7um5FxBnFxMXjx+dexaNEyp5lZ1bVgRwoDJMFgMENiJahit4ZKRmXLmtiVc5TKjVK+UTMntqyKHYIqMjIcwy48HyeOn8aG9dtwzcyJIjhF4Sl2edxzz3244oppePjhh/DMM8/g0KHDKCw0YO7cuRg+fARWrVqJI0cO47///QJBQQFCTJWcnCyfk4OCHRxjxlyGd9/5xGm20g7csizQOkCK9jZvhgwCSZKKjIUICtTDx7u1pGJa1kRuSaNlmp6OoiqHgbtdAyWcCUZkMFNUaJKsgbAwlpVJKYLjLylRyhG8Jl9fb+vvVF6E6oMfTy8PvPba8/j8i89klUsuhLFjx+LPP//E9u3bRaqZ5D8EFJ49m4nevXtj27Zt6Nq1N9at2YTgEB3ycg0oyDfaMhe0naorIX97Kh0astnDlOX9oJQ31A4MxWlbf2dVl/SA0pbJ/LutQ8MqNsVAR5QnreQPAsR0UZyndowwmzBl2iXo1KmTBEfMotx9991ClCTy1YsX49Zbb0Nm5hn8/tvvuPa6a7FwwUIcPHQI//nPp9iwYYN0fJw+fVrErNLT06UNlIHFmIunyDG0TbMAswdGUxHCw2JakTHOySA08ult5NdqtaRzuCBa1s1rqzawAhIJ0jMbLe51z2q4Jzo/b+lCYKnBYla6GLgRxMifmD0wmRQJaFXdkaUIOk+WAZS2SKuAk/V54u++/W4WYmKipAOBzkrAhKdOYc2aNSLVTA2BYcOG4Z577pHWROIKgoND8fnsb1EOsxyTWYtKawOrvoTKDW3jgldX61Y6abWrwn7lroAirY7eur898NJWQlHIIJRTVHk/VMJQWD9UQZeV9rX/XkOeBQ9AHxKE4iIjpl89DWMvHYlevXopeBFPBjSkoGaWR6HrPnb8GPT6EJw+lS6ZFNJsE1/h6UmK73YIDg4SEi7act/eQ8IzwXbbp558CWaTAuR0yeZunHQNuScuMVAznKQ5bNCUc1ZODNTTYB4qSLFxnr6+qwISSZBu2c83AJ5e51Itu9v8r5pwaetckk2Zl/WcibIbuQUIBGRXQG1sxO42X1gekLiAXQdWvgOF0V+RhOZ1qfwIdFakdubnBD6qmhHlJFri6tzKmXD3Pbfi0nEXY9OmTQgKChLGyMjISOlIYGdBfIcEzP7vZxIkMHhgDf3P1Rswd87P4shUxse67F+dLcknQeXHo0ePoaDACki0On0ll6C0Y9gDKuX6rWUD5V1U+Y1kCwSE/lppzVAyGGp2QbFYTZs9/asagFTsq4xFHxKM/v17IS3tDLp3647zh/QVYabs7GzZlTZkIBUQECjlFupZ9OrZG1nZ2VLiIScE79fcuXOkNMH9v/32W3ToEI+li//A1q07bSJe1Y2zOeZlc5yzrjnljM9d9Q5q6Njp19jJEBgY0tCv1qp91uCD1fIFawKwUYf06Nt7WOOig2pWCDWNgGmYAkMOwkKjNR6ERt2m1v8lvuBFQllS9I2eks1mKGYOmEUQB09OhLIyhROhDGDJgEGPWjphIEBqZ5Yf1I37MmDg93n9AYEBmDZtvMI86uGBosJiG2UyAwQKEoWE6sVe/DdVJ9mGmJp6GhERocjJyRPK5eEXDkXnzsnSPZSTk4vIqHChXbaoVMthodi6ZSfiExiAkHZZGUdIaDA2btiGeb8udqpNbUJVdmUMtX1DdQq2gMMuSFFjCftghNmD7t074+zZHJw+dQZ/e+IeCRCYgWGZgRoMe/bsEft26tQRL7/8Mt566y0pIzAzw8+53/fffy8gRIo6vf/+e+jQIQkH9h0TemZt0yxgb4GWgkFQn7OG3j0tQGioxbT9nWIBruC4orR3mk45kRMPSufOjAA3pqVJkEQcgsprwJ/pnOiAuaktnNVhLSqAfYoLtGdhVAMJOY61JVIlYGD54uKLhyM7Ow8nT6bjmWcfldXx/PnzBclvMpsEfPfUU09h+/YdsFjMiI9PFLGro0dTcPHFF+PgwYNC40y56Lff+tCJFnP8oQMC/KSThAHTS/94XPgefvjhBxH66tu3ryg7ZmRkCJOkKtZE2xw+fBhDhw4VzMJXX30luA6CGPfv34eePXtj/drt2L//kOMHrB2xRVugTQUI9S0ZNPSOKupqXFEpKyxt0yxgbwE6OqbhWatv6RunNx0/AwFiDvwDdNLdIMGDD7MBCrESN5XrgIyNBARSorm+2RMVOKgcqMJqPM5FFw/FkcPHRYjp+Rcfx3fffYd58+bhk08+kdXyl19+Jc5xzZo/Bb/AEgW3vXv3Cijy7NmzWLJ4Cc5k5OHbb10hyOScuz54yHmCKVCIbPwRotejRPrWS2EwFIHBBDM8pMvOyy8Q5VDqajDDwwxCeHiolGsKDUVStmBwoW2aBewtwLlE/0ZNlNawVXXPtgxCdcGBu9Z9WsON0K6hwgJ0nIowUssrLdR0H/38vKVFk9mBwCBfGIu5qi2T7AEDAgYJVQmT+Bk7IlikZ5tkvdSHa5lI/Qf0wdRpl4pAU3BwsCDvqYJJiePExERcf/31Qpx06623ii7DsWPHhDOADpO6DEsWr8Rvq9ZXOgPLGV26dkRuTi4yMjKbncBKe440C2gWcKwF7IMEj769FAyCM1/NGgbBsTewNR1NqIy9vWByt64FBxiZmAriFslroJArecJsJpESswxe8PL2grFYQcNXF6CzXMFjSMeDlYGR+1VkD5Sntup32cMvwYi3Fwae10/KCky5Dx4yCL/88h1GjboIpRYvXDDsPKxevQ47d+yX1XRhYRE6JieKEiTviQJQLEduHumGPRGsD0RBfgHGTxiFESNG4LdVazF/3mJERIZLW2VcXDR27NjjAMtph9As0DIs0FJKDA2xpn2O36OPNUBoyAEauq8WIDTUYm1jf0nH+/q0yuBAvYPSqeCjsCayk4H/tqeOZjmCKW0GANxqy6KoQEbBNHgpYEYSNdlrRJDf4IYbr8Sp1HRkpOfg/r/eKuWFdu3aSXlhyZIlaNeuPZ555lnMmvWpZA1uvvkWnDqVKkEEAX1PPvkUvv1mDvr2HYDomDAsXLgQM2bMwGefzZaaPje2Wh45ckRq9zzuI488hmVLl+L99/4rx9E2zQJtwQKtMUCwv28uCRDYCkKyJH//oFZTq2kLk9/Z1yi1egITLa3boTCLwNR8SWmpOHTiLYg/sO/Y4IqdAYDKldDYkguDjQuGnoeM9EyEhITinX+9IjoMmZmZGD9+AiZPnoTXX3/dJsTEkgLR+pSC3rlzJ0JCQmRftk8yM0Gu+Tlz5kjZYfxll+Oee+8SIOP48eORkJAggEbuT+BfbGw8nnziRWdPG+34mgXcxgJGYyFMZiNC9BFuMyZHDsQlAYIjB6wdq3VYgA6SzIIE5rWFTQUpCnixpBReBCyWs6PBS1D36qZmCYSJEAoDIx01g6iGKlkOHNQf7773mqz0uaqPjorF8hVL0bt3P6Snn0ZgQDD0IYGIjY2VAGbfvn3o338Ann76acR36ITefXrgggsGCWtjSspxXHPNdPz3v5+jf/9+iInhd7wle0AK4o8//hibNuzFoUNH2sLt1K5Rs0CbsIBLAgRmD4qNBiGT0KiW28S8qvMiSVNsNtUftV/nAVvADkrropIpUFoblQBBIRwiVqFyJkXojtnKaCUVYonC20ehSC4rZTmCQlaV0UMMREZdNAQnTpyWY1/9l0nIzc0VLYJJkybjzz9XY8iQoVi9+neknjyFS8eNFbZAdjB06dwDl40fi6+/mot/f/IFZsy8Eg8+dDc++nAWVq36U0SjyCDo6+craH+itxOT4nHd9X/ByhW/4+23PmpwENMCbps2RM0CNVqgdVItV1yuSwIEGpGqV2Fh0fDV+WnTrY1bQJFx5sq55bc1NuZWMkCgiFNRkQJQFPEiT6UNUhVsqu64KnOh+pnCflxuk4dmKYMSxtddf4UADY+mnMarrz0jYkPEHjz22GPYv38/brrpJtEZ+Pnnn3Hvvffio48+RteuXVBoKMGaPzcIodKZM5kijxwdE4UTx1Nr1B6gOFX79u0EyJidldMYc2jf0SzQYi2gYRCaeuvKy1FUzAAhVwkQfHzPPSLffM4iYWjq+GsbmzuPu6nXbf99B9vAP8DXJoNc4zAdfE5HmsMhx/IAAgN9JWugAhTluJ4e8PfXyfNQXGyp+bmoxT46X530/p93Xj988uk7giGIiooS7MCPP/6IKVOmCOXwZ599JkED92UrZGJiR9x392M1X15rvyf1ubHuZgPtHaSk35rJf+TlZ6OwKA/tYpPrM3sq7+OIcTuZV8i5GQRb9lPEWmv2BU5us2z4nbNLsVBWt4bRi+SuUxtEmzJyx33XkXwYRPEzVS419VpsV5ttW5PdfbzJi6CTgMnWjWDlPiL+gJwJklUwKRLQZEVSpI+rtx5toyhJlsjK/rHHH0Dffr3kHZqZmS2iRKRgJgjyTEaGHC9YHyRBwqMPPYPc3Hx8/Olb+OH7XzH3259kbPyuyWiGj85H2CGJZ2B5gR0TxmKCjwOknFFQUIDg4EBcMGww7rr7ZgQGBuLxx55DypFj8v4uKiqEztdXWiVNZheKHTnuUaiVP785dBFa07NQ221y5DvIgdPBeqjadURqOl9j5ktlnROrV3VikFB9gKB6c/srUJsjG/EZkdD84+3lIy8VbWu7FqDzYnBArQJtUyygdjmIqmOpVSq5SvDEoIq8CGRKJO6grLRUFCP5b1U4iceilsCIkYNx/FgqCvKLcO/9t6NzlyRx6B06dMDuXbsQERmJsLAwfPH5NyJTffmksWjfPg4B/oHIzskWISOWKPbtO4AOHeKQnJyMdWs3SmvlhSOGoSDfgCMpKaLvsH//ESQkxInmw3dzf8bIUcMkW0HmVOIezmRkIio6SoLC339bAz9/X/z84wLs3KnxJWjzv+VbgIF1WVmJSzWGGBTKZu+Tq/PP3KcR/tr+rlQECDUdqCbp1arhTy3hUGFxAQyGHISGRLnUkC1/+rWuK1CyB2zvI/W2M6m5WqbdFMpphVWSG9sga9484OEJWdHTpiptMymFx44bifS0TAkQ3nz7ZdFe4Oqe2IPbb79ddAkmT56CRx55FNdcM0Mc/3nnDZDfE6vAbEDHjh0Fp0ARo1tuuUWwCx999JEciy2Pv/zyC06fShOdgnnzf8GsWZ/h0KGDIkl9/vnnS6CyZcsWYWi86qqrEBoaKi2RP/88Hwf3H8fZs1kt8yZpo9YsYGeB/IJsFBbmIy42yWV2sQUIapBQne9u6mfWq6kUIDjrlV1UlI8CQy7CQrUAwWWzyA1PpLACVlYxdMNhNvuQhFDJ21PaIWkzrv6rE3SqaaBkNMzKykGPHl1x9703CVFSXFwcwsLCsWnTRtElIFnSzp270Kd3X6F3Li4uEspl6jAcP3Zc1CR37NgJg8GAnj17iOw0tQiSkztiyJDB2Lx5M/JyC+Dn74+tWzeLauKECeNFmprZCXZO8Dtbt24VboUJEy4XlcSgwFB88vHnWoDY7LNMG4AjLJBvxSDENQaD0OgBnKtn1JhyRXWnryoNbQsQnLmgKy21wFJihs7HVwSbtK3tWUBVNOSq2JlzrTVZVlV0VOmVFU4ERfGyqo5DddcdGxeDm266BskdE6DX66XMd+DAIXTqlGxtt/SGn68fylEqjIoXXjgCC+YvwaiLhsFkMglWgAHAsWNHRcshIiJCWiLJmcAAIDm5k3Q8FBTkCvFSUlKyMDJS8InjZIlh/fpNCA3VCwPj1199i507DmLv3gOt6TZp19KGLUA11JJSC/z9Al1oBecKHlbSYujTszothsYWLupTp3ChHbVTuY0FRMkQVM5r3ayJzjQ4Swnc1ICBNmWmgb+lzlU5/+fhgQmXj0bWWbYqZuOll5/Erl07MW/efDzyyMPi4Cln/MADDyA1NRWrVq3CddddJ+JMZEbs128AGNCvWLFCuh6WLVuGtLQ0PPTQQ0K4xCxCYIAeP/30I3r07IauXbth6dIl0i7JMga7IVhKoFzyxIkTYTSa8MYbr2PC+Mn45JPZOHzoqGREtE2zQGuwgFoqbR6VYueAECprMdgChPo496qoxZoACpVvfXGxAYbCPIToI6HTVdPm2BpminYNNVqADw/phbXgwHmTRBVwIo7h5luvxv59R5CRkYXnX/iblAU+/fTf6NSxC/bu242jR4/iqaeewvr16/H555/jhRdekFIAcQcsP3Tp0kXok3nfiDVgUPHww48gLy8Xjz/+ODp16iQZh0suuUTKCaRZvvfe+0Q++sCBA4I9GD58OGbOnIlXX30VkZGR+OG7xSKdrGFPnDcHtCO73gIFBTnSxh8TrWiUOGerr9+tDRhY/8/sMQ4eva0BgjP1HDWxJudMm5ZyVK5y6bjYqqdtrrNAr17dMWHiaBFgorzzvn178bfH/ob33n8Pd999twQFP/30E/76wF+xb/9+JCTES3ng4YcfRo/uPTBl6hQsW7oMwfpgKTHM+3WelBzGXzYJa9auxpEjB/HAA3/Ftm1bsXPHTrz62mtYtGgh0tPSpbwwddpUnDhxHCNGjMQVU29w3YVrZ9Is4CILNA8GwdkXV5FDcEmAYDQWgVmEoKBQ+PjonH112vHdzAIE2rEvX9tcbwGyIUZEhKHh1yWVAAAgAElEQVSgwCBgwbS0dHTqnAyDoRBlpWUIDQ2RjgKCEtkyeSbzLIKDglBcbISfn6+AJA2FRfJzeFgYjh07LviHiEi9tCzm5RahuKgY4RHhwqTYoUM7KUNwn6umT8KRlMPYuztFWia1TbNAa7NAYVE+KNgUER7Xii7NxQFCpZZu5+IrWtFNah2XQqfjo/OuJEjUOq6sbV9FZGSElAuysrJrNERUdCQC/P1x4sQp6V7RNs0Crc0CzYtBcJY1XRwgEOlJyWc/PzKueTvrqrTjuqEFSIxkNqssgG44QG1ImgU0C2gWaKQFKERosZgkO956NhcHCMQgGAy5CK0PD4KzyBgae/fcm+OzsVfVsO810gYeVlGiYqsoUYNO2shzNugc7r6zI2zgAVw4Yij0+iCsXLEaxmIjLptwCbZt3YGM9EyFja0cCAkLwXXXTcfqP9ZJG2RoWAj27jmAbt274Pff/sTxYydt+1ZrNkc1YreFe+LIa9TsXvu8dKStqzmWECUV5SMuphFESdXdO7fIsFcKEIY63SXXG6To9JE4ebZoh69kAV8/byV7oGWXXTozevfpKnLP5By5avoURETo4eHhiaTkZOTm5qG01ITOnbogOycX839djAXzl+Lu+27GgQN70LvXAJw6fQxTp07B8uUrkXLkMPbuOYbsrDytA8Gld1E7WUuwgMKkmAeHESW5RYBQYXmP3j2dHyCw75k92iTLqbVftEqA4A7xgiMWcS1hotc2xsbYgG13AYG+KDSYGnX5jTlno07kxl+ytwGxHEo3CCmWPWwaDPw9/61uYWEhGHfZxcjPLxBw4CuvPS1qjjExMbjssstw2223SQvinXfeiWXLliMj/QzS07KFdfH31ctxxRXT8fr/vYpLx45HuQdJrcqxcP4qGAzGGgWieG5tIds8NtDs3jx2V5838W3lZY0qnVcbC7htgOBEb6yo1Fl1620KE3W/mZ04pLpPru3RJAvodN6iJUAlQm2rnwXo6H28vYQzwsvbS3QbVdZE/q3Y0qriWItZO3VOQOrJdCQmxeOZZx7Grt27cPLkSZF5njp1Ku6//34hR6LuAjsO9u8/AH1wOA4e2ovJk6bhs9mf4sYbb8K6dethNBpx6OAJZJ3NO4fgSCihvbxECVLjN6jfPdb2al0WYHBA4jI+C43d3CwmqBCBYuBvyyDYvXAczaNIIgkSJYUKURKpXZWtKv0Df2cvnKm5lsZOueb9HrMH/v46FDUGe9C8Q3f62RkEyLwvp/KiJ8iGyN9R4VIJApR6TFPoqJmlo8Pu27cXrrvhCuEmGDVqlJAb7dq1G3fccbuwKJIw6fzzByPtdCb8/H0w+7NZ6N2ntxAgUXSpf//+QqnMMb3+2gci1Uyp57zcfIRHhKFjciL6D+iDVav+RE52Lk6cOFmHwJTTzaudQLOASy2gECXlIyY6sdHnVQOE6nyfIz6rzddW+5ldxGILENQXUlWn7QAxRxQXF6BA1Byja1VzrO3cjba+9kWXW4BOj6vd+ugFuHxwzXBCBgKkQKbT9vbykjIbHW1DdSlUtkQ1ulaf4wrudA8p43Xr1kkkmZlwePyJv6JjxwRRZqSgUlpaBjIy0jBmzBgRZjp58pQILPF3Oh8/dOnaCZMnT8a//vUvdOrUWWiZhw8fhpQjJ0XTgRwJe/YeQM+eXYVDgSqNu3fvgV4fgtmffYNFC5c3g4W1U2oWaB4LOAqD4Ai/W7Xc1OhjVgoQeigYBGeu1tkGYjIXi6CFl5dP89xJ7awuswDVARVwojNnlcsup8EnosOmsBIzA6UlrE8q6ceS0lKUlZ5rE2osiGSzHbaAKQQG7UqN0/4JtT69HhWZQHtcD897zcwpOJpyEjk5BUK1vG7dOnz88cd45ZVXcfjwISxatAizZ88WbQUKL9HJP/PMM8KiOGXKVFxxxTS89NJLiI6OxvLlyyWYoLbC4sWLMXjwYKFX5nfDw8NFwImUzbt378awYSNw+60PNthe2hc0C7RUCxhNRbCYjQgODm+pl3DOuO1LHh69XRAg2MgkJJ/hdhWXVnNj3eFCZLVMZ1jStloXOK2ZOWEtUq7dOs3JVqjiMDy9PKRmrwQM5RI8SAAAgg75aFQ4f0bsDAwEvyMYHqXuUFfpgYdITo5HTk4ekpKTcPsdM7FgwQIJEqjWOG7cpVi6dCmumHYVli1fImWE4uJiwSNQXInZgIULF+Cuu+4SumT+IbiRegpvv/22yESPHDkSCxbMl8CBQk4MDkjbfNdd9+HBB550h2mojUGzgEss0BqJkioFCL2sAYIzrUkyCdJRBgbq4e2tUS0709bNfWwfnZeskttCeYGOniyRdMoWIYNSrM+XBjMCXM1zH9qCQYPCJmhd+ts7fyclWkJC9LjggoEICw/Bhg1r0KlTF1z9l6sxf94vOHwoDfAoFfE0lhgIVoyKigKfVf7s7e1jDWa8JMNAEadtW7cBHp4IDAhEUbEBgQFBCAwKkOs6m5kFs6UMhw+lNPcU1M6vWcBlFqCEALMIYaHRLjunK0/k4YoAQUCKJEoKiaoVg+DKC9fO5XgLsAWPjtFicU32gPoAwcFByMrKcZmEMJkhGQTR6SsMkYA3AwVmD7yILShHiaXEGhBYew6cFABUdweZhfjLNZfj5Mk05OUV4arpl2Pv3j0gNTJ1FC6++CL88MOP2LBur2Q7GMzYlygUNHa5ZD0qJ/sUDIUaAKlASO7Pn5kJ0WScHf9MaUd0bws0iSjJvS9NRueSAIEgxQq5Zz/nmIUvL/WNZkNcWpMlzfGZWNejAo5e3diqG6c7fs+a3q7RvtY7Koh8Dw9xnFZP0qR7EhkZjptvmYGcnFysXr0BZ86cRUCAP3Jz8xEY4C+guZnXXomtW3Zh0cJlMJlI6W0RoSEGKkp63jq4qra2m4XVVb0kO+DjDW8fT3GkLBWU0mkCAgSUEgEzA9buAykHSF2g4sA8Lu2hYgsEZ8B/W/8o2IOKsputpFCmlBRsICPrdahlBngo55HRVCo7kGvECzNmTsHpUxk4k5GDW2+fIWDEffv2SYsjuxO+++57bFy/T8ZRqT3RWc+JO87pxj57dT0LzrJhTe82dbo19npayvfcze7W+2zrYohKqPyuayWldJcECExBckWirjYcFiFUWpk5q0nEvtFE3nSqx6nyc9XP1H/bN3XKLLd+v6YmzyqBRaXz1fFZjY2jTRhLva6XTpP1dU9YLKV2TrJp96Rb9864ZuZkrF79h6S/CagjOO6ZZ57FJ598jNjYWHTt2hVmsxmrV6+WWvq0aVfhsUeeQfsO4SgoMCIvt9AarCi243PLsao9/Mx6eHEVbAUJVjh4ZRXNPwRbyn90ylV/Luc+yn1VAxIbbsDesROwaTd1zpm6toeiuvnSsDmo8/WBxWxB7z498MabL2DJ4iX45Zdf8OprryIrKwvLli3DieNnkZ9vwNGUY9ZsgQfKy8rg5e1tK5HwGPWf77WNsQnzzz7IbhHPQtPmfMVkre+7xhYh2L1X6vmeaez7olnuiXpNDXsW7B5+u/d2fW1b970sEx6EMnh5etXwrNj92mGOz3UHckmAUFpagpJSC3y8dUL/6rDN6f0XVV9sVUeu8ZipDkRdaZtNdCqO2DzQIaEdHnzoDhw4sA8dO3ZGenoaTp48gREjRsDPzw86nQ5r1qxBUlISUlJS0LlzZ/To0RPXX3cnIiKDBATIFb7Nr6gvNrvbpqzaFQCgAhi026w4AQkUlBQByspKpYxQKuygFSBCYTdQMYbW1YP807aSUNPz1leWDbBQkXmoPJ0r5RCqMWhNc88DMbGR4vw7d07G088+jIyMMxJEDRo0UDoYGFhdeOGFmD9vET6b9RXCwsKRX5APY3ERBg8ZAmNxsXzn1Kl0wRZUbLXNd+1ZaB5OP83uzWN35amgX6N/89X51/DSs2s3csRr0cXHcEmA4NQSQ12wbhcbtC2ejqtvMieaTCVNY/ipYryoqEjccfcNiIgIgQe8kJuXg+TkJAHPMVtAfQGWHAICAmE2m8TB791zCC+98IZkBFTHX/s9UR5gvmZt5QBr26Faoxc/bwUd8qAEHJLDgBuzJiwVMIAgOFNaO9V3AjMW9osVlQDJVo5QSgkVZRAbT6IcuxLvgf1CpEojkH0g4u/vh4mTxiA1NQ1nM/PwwIO3CQfCrl278MQTT+Dbb7+VgIrlBnYufP/997j++huwadMmbN26BbNmzYLBYMCnn85CXo4RK1f80RantHbNmgXqZQHy+1BrKCY6ofr9W3ipwSUBQr3Fmup1S2reyRl0r9qaqW4RPzpJ/jGp2IMm3kfa3EfnAwICE5MSkJgQj7y8fAkM/Pz9JJ1XWlaqoOytP/Pel5aUYveufTidlt7EEVT+uhI4AF4eSilCLTNLB4O0dCpZBQXwpwQNAtwjRoHYhdIK0KY6n85p9q2UdVDOb5+VqHpBtuPYsiLKEWmzPn16iL2CgvT4dNa/pPzCNsQbbrgBH374Ie6++27o9Xr8/vvvOHDggFAw5+Tk4Omnn8bcuXOldfGVV16DPigKy5f/bju19izU/Sy4EI9qnSPO5bBx6IPUhIO569wrsKo5xtqpOdaqN9QEGzTHVysHCE6a3UzDlJSY4aPzg5eHA0sMVSxm7RZvDju22XPywfUP0KG42Fxnj35dRuKxdL7e8CCXgEURClLR9Go2gFPU08NTVSQ4x3k5I0iszjmr2QZ1gUCAJqMDYjCYRVBeEkpZgtfj5a3gHvgZA4qGsijWZTv7z3U6Hzn+wEH98eFHb+DEiRPC3EjiI9IrU7ipQ4cOyMjIECrlzDPZiI6JQl5eDvr27Su/37hxCxYtXIVNG7c25NTavpoF2pQFSixmWEotQgKobvLsO8OXuiJKqpqdtLU5OuOCrBazvbQl9XrO2slhE0oLEBxmynofiCA/b2+WF5qGPfD28ZJWQaVFUFmNt6RN7UygPdj9wNGbjGYbSZLa0SCZAT4HDBo8PUWPgV0RAmxk8EBiJWvWobFCV76+vjCZTDhvYD989PE/YbGUoCC/AL/8shDTpl0u4krpGWno2bOXyD8bjSbk5+UhOiZaOkH+ev/j0g2SnZ0jf2ubZgHNAtVboDqiJGf6OJfcBzsX7dGru/OplkkmUVSUB70+Aj4+tbc5Oj5IalmOxiUTwIEnCdb7oyC/uNFHZP2eWQPGAyZj63FGKt2yr69Osh28NhW3UJ2xVLyBdFkQA2Et21DOmTF1hayzHYrb2lWpZFcUgKWvToer/zIJmWdzcDTltGQQmBH4448/cMEFFwhI+P/+7zVcddVViIuLk/bHwMBADB06FG+++SZuu+1OTJtyXaPvp/ZFzQJtyQIGQx6KjQWIioxvNZdtv4SvEiA4x5lWECVRrMm31RiyrV+I6A1IWt3Ke9BAg3h5e8JX5wOj3Uq7gYdoMbsTl0Agp2ovFZegch809kKqYqB4/NFjhmPf3kOIiY3FBx++Lh0Mhw4dkjJDRESk0CQzOMjPzxctBa6CRo8ejVWrVuGl599ROjbquTF7xOO2tIxPPS9P202zQK0WIA9CYVEe7DEIzuuqcPzy+dyLq5z/sAsQ6v9SaOicIX1rsdGAoIAQePtoVMsNtZ877k9H5OfnI9iDhm5cIRNg6O3tAaPR0mTsQkPP39z7y/VT6tlbYWRkWYFGUMFNwr1gbbFsylgHssTwyZtYuWIVFi5chPETJmDhgoXw8vbCmNGjYTKbBahIBz9p0iQBJ372nzkoKiqWNlKLRbm3KmcEx8R9GXBwYxtlYlI8Nm3cJqWJqKgI+Pv74tixkwKxtFhaT0aoKfdB+27rtQAB+CZSLYfFtJqLtA8RPHpaSwzOQVUoNlOJY9Q6bauxZBu+EK6G6chqS5tXZx6upFl3V/UJ2rAJ5dJVbILSLklZaEi7pEpbrDwzFUJO55IxVbYg9+/eoxMMBYWIjIrCx5+8iTVr1mHRwqUoLCySUsK2bdtEqpkKjeSPYLAWGxuHA/sPY8/eXYiPT0RWVqa0O3bq1Anx8R2QlZUt4Mb169bDy9tXgonx4y9Gj55d8cP3v+JMRiauu34mDh7chxMn0uHj7Y1Dh47h9GnHdpS09fmiXb97WUB5Hsscy+/T7JdYUWRwSYBAuWez2Qg/kXv2bvbL1wbQNAsI+6CXl5QWGpCNtqodKkj/xgLwmjbylvNtG02zjZpZwgkbE2eFLkLla+J9ufHmK3EqNQPp6dl46OE7sH//fixbthwTJ14ugcCaNX9iyJAh0tVA9UZySQwfPhy7d+/H2rV/YMaMmdi+fZuAGc877zxpifztt98wduxYUW709wvCipUroNcHon379ti8eTNOnz6Np556SmSk2SFBeuwN63di9679Lcfo2kg1CzTQAsyOWyxGBAWFNfCb7ry7iwMEghQNhbkI0UdqYk3uPC/qOTZfX9adFYXC+mxc1ZIzgNGEtAE2JKqozwm0fWwWoK0TEtpJtiAhMQHPv/AYjh8/jlmzPsPf//6EZAzo7J999jmsXbsGRqMR2dnZklmgYiMzF4sXL8Zll41HaupJkYNmJuGbb77BfffdJ2UQ0jVTQpr7k72SAEgGCpSFJtCRGwOQn39ahF0792udENr8bLUWqJMoqUVeuYsDBLdWc6wLeuEKXIi7TyI7G7AdURQbVXnjuphePQA/f53sL8C8uuyt2kKze+NZeay2GzR4AP796dvIzMzEyZMnERoajpCQYBFvYlvqls07MGLkBRIUfPzR5zh+7KQQK/3jH/9ATHQ8pl89CXt2H0BsXDTCwkLQrVs3KRncdcdDGDZ8MK6aPgnBwcESMISFKSsolh7YZkndjF//txg//jAfhYYid5/h9R+fu83Lup6/+l+Ze+/ZXHavoyufao5FRflVQIrubcq6R1cpQLigvq/suo9bwx4iBVuqMN+x/9utNqdfvVtdbdMG4wHofLys2IP6ZQ+C9H4oMpAGWTN004zf8G9ztc9nji2T3l5ewo3g7e0Ds8UsDJTM5DDYI8iBLJRBQUH48psPsGXLLrz43OvyXYrReHt5C9eFoqlSKjwN3EjIRLpr7kNhJ7Jc8lkvsViklEhAoyYB3fD7pn3DjSxQR4DAZ4Jz3KeVgu89enavJkCoh+BgQ4TAFK14a4BAztq6jm/X6i1Txf7fzvjMjeajOw9F5Jw9PWCm5kIdG0F37HIoKjI1CKdQ13G1z51rAV8/X5iMJueeRDu6ZoGWZIFafE5ZuRIEe3v5KFfUEF/VdOFW5Zx1iU6q46rufDV9Zr0/FQFCTU7bfuFnn+apmvKpJQVUbCpEUWE+goPDofOphQehvsev7dyN/cxOiNl+7jZXZsudnh/aQASZfLxgNpdW6pOvah8uSNnCx9UnxZsaizfQ7N74CkNtcycmOhIJifHYtGmb7X1Wn9xO505JiIyKxIb1m6utEqn3Sx8chO7duyD1VFqlDgb+LigwAKdOpSEt/Yw7Te8GjcXd5qVWYXAc60CtyYIa/IqhKBfE2EVFdKiYR/X1YzU5msb6MEd+r8YAoUGPS/12FgxCYS5CQ6Kgq4NJsX5HdM5e9XlROufM7n1UzjtfP2+rimHNpQWy/VH2WemBb1iHg3tboGWNLjg4EAZDkbAqsg0xOjpKygqBAQFITk5ESJg/NqzbKTwIZqMJEZHh2Lp1J9LTM9CvXx+0ax+LosIihITqkZdXIHwNV02fAj9/H9x1x98wYsQFUl7glpubD7JFBgYGIDcvH716dcPUaROwccM2rF2zESTT4tauQxQmTbocW7fsFH2HzMyzCNYHSwfF77+tFcpnbdMs0NwWqKOicE4QkG+wYhCik6oPEJr7ghpzfjsjnJtBaMwB6/iO2WKCyVwsgha2VIwTztPUQ2oBQvUWZNcCMwHMHtS0sZbto7MS/1jqh09o6v1qS9+nfVUiJZUbgddvk4S2PtR01hdeOAiZmTk4ezYXDz18lzhzCjb16tVTpLHffvtN9OjRC+effz5SjqRIgJCdVYC5c37GXffciNjYaKxa+ZtkGoKD9diyeTOmXz0dBw7sx9df/Q/PPf+YSEOHh0cIPiE3Lxddu3aVXvDDhw9izJjRAoz8bdXv6Nevn2Qc3n//Xfz9739HSEgI1q/fgJzsXPTp2wdz585BXo4Za9duaku3U7tWN7VAvQME6/iNpiKYLUbog8Ld9IoaMaxKAUK3czEIdUEE5MVkl5KvrkRT6Rgkk0C5CDXx5VbX8Z0BM2jIMRth0lb7FeIO6JxYLqhpU2mEzWqnQqu1huMvjJwSdKze8reVKMkq3MRuUNY3VXIkPnS2eUyVyCpvMz5XBCNecumFOHzwGAKDgvH0Mw9j2bKl2LJlC2666SbhPmArIgGETz75pKg5Ug66T5++mDPnOykPqLoMF154ITp27IjvvvsOzz//PA4ePIiFC5fglVdewk8//STESQQvss1xxowZQt+8fPlyJCcnS2fDmjVrMGbMGCQlJQlHwj333INevXrJPnv37sXkSZNx7XXXYuKE6Vi4cLnjjasdUbNAIy1Ql3/jYcWPCVFSuQ1838ogCPDoaQ0QnAhBQH2JkupbunFkqaW6627knGp1X6Pz4uqzNjplZhfo2Ei1W6YlDmrPsPiQXlrRr6CDLi0rR6nKJSFBtE0h2o4QqeHTys/PV7oK+vbrhRtvvgpLlixBamoqunfvjvR0hdmQzr1Lly7CZTB//nzMuGYmTpxIQ2JSnDj0+++/H+PHj0d8fDyWLVsm+5M06dDBE7jzrpvkO9RxIJ3yl19+KRwIJFZikDBy5Ej8/PPP2LNnj5yLx2IA8eKLL2LgwIHCw8B9KT39ySef4PLxHOMq24Vy3BER4VKiYOeFtmkWaG4L1ORzSLNM/2ZPlFRfP2Z/TfX9jit8n/26wxYg2CIiJ9yJYhWDoI+Cj652NUcnnF47ZCMswKyBn583iotr1koICNChtLS8yVLPjRieW39FCay8FdnncoWOmqRS5IGwZQNccAVRUZFSYphw+aUSlHA8HMuWLdvRr18v5OcXSGsjA4pTqafl59NppwRgGhYWbitpEMNAfYXo6Ejs23cA839diti4GEyZepm0OYaG6oX74NixE+jQoT1Onz6FxYtXIDU1A3fddRMsZjNiYmPw229/Yty40XLlDJA4JpY+VqxYg0ED+8nvqAPRuUuy4CVmzLgDR1OOu8BS2ik0CzTMAqqjLiAPQnE+YuwwCM4CjroCIFu1xCIBgrNr76rcc3BwhMak2LB52Cx7K3gCb5SwZFANf4E4QF8fIT+qL5tiUy+EWQp15c1VeLA+CHp9MFJPptnS8FK+cuJsrkjpVzyqoi3BzICXp7RzKgyTCpW0GgxULgXUVOWseArVTAJtZi8DzQKDfFuhLrBtNhwC2EHihRtuvAKpJ9Nx+tRZvPSPJ7BixQpZiY8ZPQaPPPqIKDeS6fBf//qXlBOoyXDs2DFMnTpVyg0ffPABrrvuOskOzJ07F48//rh8vmHDBtx5510oK/PAyhW/YfyEMVi/fj3mzZsnmQBmEpipuOWWW7B0ySqMHn0xKAfODEZOTg6uvPJKPPTQQ5g8eTJCQ8Pw/vvvYfbs/2L//n3YuXMnrr/+esk6sDzBcT3+2Es4ceJUU6eO9n3NAk6zgMGQA4Lwo6MSnHaO5jowXzEeParBIDh6QCSTKC21wNtb18pELRxtqeY/Hp0/HbC64rUfEQMHOkO6KXYpuIr8yMvTE127dUJgoJ8oH1rMJlwy9mJs2rwepSXeKLGUoMBgQHFREYL1odi/7yD8A3QosZQKdsLesas/VwD9lMK+4m8VYST7zaaJ4OkBdmmw3ZP/kRyIokoidVxWDsZRanCiOHEFbyN/FGiB7bvqORTFRu7MH2BtH1WVHK2/V8qctq1y/HNuaM/V/5ixw3D61BmUWMrwtyfuxeHDh8XZd+7cBbNmzRKhpksvvVQkoHU6HcLDw8UpT5gwQfABn332GUaPHiOBzp9//oF33nkH//vf/wRwSAd+ySVj8c0332Lw4EESNNC5UxWSzj8gIADjxo3Dhg2bcNFFo4Su+fvvv5eAhMJP7777rug+MFvB37/4IoOA40L5PHjwYBmHr6+fMDM+/reXcCo1rfkfCm0EmgVqsEBJiUUIxHx9/VuljVwYIJRYAwQ3Y1Jslbe1cRdFlUWu1LkKFlpk60aHpgYGdILUU3D0VlmcyOpg5S8P+Pv7YdxlF6Ff/15ISTkCf/9ABAT4SR2c9fKEhESkp6chKCgYw4eNwMMPP4XEpEgU5BcjO7uwwlHbqSeKo/eAzenThQurYCUsgOKs+T/iK4gSYFBUkR1QsgTi3Jkx4H92mYPqnLkTExx290vJpCQmdsCEy8eIzXr26o7IyHCsWrkaA847Dwf270dcXCwGnT8Ahw4dEc4C4gc2rF8Pna8OM2f8BRs2bMbBQ4fFoXOVzyyEp4cnwsOjUVCQj/gEqjtuFN2HW2+9DfkFWfJzevoZmE1lCA0NRV5elhxj1MiRIvm+YcN6BAYGYciQoVi4cD769u2H2Jj2OHjoAEJDQtGufXvBJxQaDJj363IUFxuFZI3ZIpZCjhw5rrEzOvrh047XaAswQCgrK4FOpwUIjTai0VgoaZjgoDD41EaU1OgzuPCL9m94ehhXvPGdfHl0wjpfRb6ZgYFKpSsUvd6kVi4TJ8sVJR3gOUvs+tjAKlvMAMSTiH3rMrpqKl5t5VPh+lytM0AYc8mFuOnm6/D888/h6aefxUcffSDKgkyPE21PDQAKB3Xt2h1XXXED9CEBUgJRuy8q0vAq7Zj1Ojguu0DIupi3AQYlcOF/DCgkE+CBUjKDWjEFEkZZr181gy0JYSfTXJFVsJduVi2pZg2sAYf1kJXKJRKHWMesxCTVzz0PD/Tt1x2ZZ7Kh8/XFlVdOEB2Gzl06wtfXB2mnM3HkyBEMGzYMJ1NPYPLky5GdlYvMzCxx6CpGewIAACAASURBVEuWLBZ+AuINzmbmo6jIiLJyM9q3a4eS0hLk5eXDZLQgKDgAQAl27zqExMRkpKefxIyZV6FDh3h8/vlXMlf0waGAR6m0VqaePImp0yZj5crl0h4ZHRWLDRvXoX37eISHReLIkUMoKi6GXh+KyMgI5OXlCmfKjh07EBMTjcSkBJw9m4kjh05h65YdTn4iajl8bc98c7wPmuOczWF9R9m9aoqwiddSWJQH+reI8HZNPJJ7ft0lGQQBKRpyEUKipJYOUmxVAYISGNB5EWvAlDxdD4MCsiGqWQQi7Wuu7Z8LnaHehtTmvTzFsfK7DDpsJQlrSl+t0SupdsX5VdTfK/hDSf97y60zMHLUcBw6dBB9+/bG7t1c0RYjOjoGEeHh4rz47G/csAPv/evfSpG+PoFL5Win4l92LYVKdoMYiArnru4owY7gI1T8QVlFEOWhXEOlgMEW+fD36jVbbWhfSqjyvjgHuaBenzWAUQ5bLrwEM66bIiWGMxk5eP2fz2HdunWSwmeKf86cObj4ojHIyj4r94h4BAZXTPnz8+3btyMjI0PkmwcOHCwZg7XrVksnw6BBg6R8wJJDnz59EBkZiRILMGz4UOzdu0sUHVmu4Oey76Xj8PU3X4uTpwQ0SxRsfezYsbNkAxiMsP2RCpO7du3CxIkTpZWSmAmWGHg84hc+/vhjwTqQxTH7bDH27z/YjG9TV0DFmvHy3PbUDrK7gwMEghQLi/MRa0+U5LY2bPjAXBIgsA2EL3M/EiV5Wzmr6znWhIQOuGr6ZPz043xccdVEnM3Mxhefz6nnt12wW4OdUMPHRDT6NTOvwOKFK5CekYnLL79EqGxPHk/F8eMnG35AQEiNWK9WsAalEhSQMY81fjUgUBx6lRW3bbWtOEYly8CMAEF6ZSgpVYIBm7u3On/VTEog0DCcL7MKcXEx4lS4evfz84Ox2AgGDkxHM6vBgIbbmYws5OfnN8omDftSBV5BDSD4ffnZkyJJSpBEW9DGlpLSBgQsqn3s/7aLXayBR3Xjpa2SO8YLA2JCQjzeefcfWLVqlfAdEBx4zTUz8PXXX2PevF/l6wQmEldQVFQkwQJBhsQhsK2RmRkGF+RCuPbaazFp0iThMmBL4/Tp09G7dx/BMDAb8dtvq+S+sBVy8+bNSExMwr59e6VN8sEHH8QPP/wgGR/iG4YNGy5Zoffee09aHolFOHXqlMhJU0b6o48+EkVJZq6eeOIJ4Vng97Kz85B+Ohfr1m5s2K1y6N4OclQOHVNbOFgT7O7goMDe2mxzJBEgs+OtcascIDi7naEeFrzjrhtw0UUjkJuXh9iYaPnGH6t/Q79+A9C1a2es/XMD3n7rY9x7/23yMtaHBAs7W+aZs+jQoZ3UQM+ezcYXX8zB3j37oNf7Iy+3qPE9+nXOS+cbjXS57dqH4c677hTnumzZYulRDwsNR1Z2Dn7/fQ169+ohzjI0LBQLFyzDnG9/QEAghXcsNnEldiaw/Y5ARNVhC95AHBhBh8oNYileLQXQyfFn/i01eAYAZQpGgT9LdsBad6/H7W1zu9BhM8vAbAo7DMSO1tZHYjlsPAhOsMyg8/vjnXdfgcFgkDZElhKIJeG/t2/dg6HDB8qKn8EB76leHyItigQa6nS+WLxoBXJz8jFu/EUybmYZDAVFgEcZAgMDZcRv/fMjpKaexvMvPIawcKWEmJubLfTJlJbWB4egQ0I7BAUFyOKAbYxUezSbLXjt/17Fo48+gvCwCOmKiYqKEgZGsizSVgRZskQRGhIOTy/Id7/64gf8/NN8J1hLO2TrtUBNnUNNuOI6/UITjl3TV11xzqogbVsXgxP9nNlshNFUiAB/fa0ZhD59e2LM2CFSV+bKRa/XC/MbU5R8qXKlkpGWic1bdmL4hQPlpcc+am4kfWErFrXuBww4Dz/9sAD79+9HZLQe+XnFKDQUC5ejslWmR1LsXttn/I793VEx72pVuOpn9sZs+mfdunWFt08pJk+eCLPZjF9++UXa0HitfKEOGDBAAGRcJQ4ZcgH++H0tvvj8S4SGBymOXM0EWFfz/DdZD+mgFGevrPpZN+bPtl59KwNmeZmCsHdmC6ETHie3PaQ9OJJZHC92SLAc46GAHZV7xgCMdlfLO5Xnp1qgULANFZfKYO788/vg+PHTsnp/4aXHcepUqjx3BAcuXrQSw4afL6WIggIDoqIjsHLFavTu00MOsmvHHowZexF++XkB5s9biomTLsXkyZfh1KkMtO8Qg+Iio5R3EhLbCYnW11/+jF69u+HyieOwbu0mdOvWCeERITh27DhiY2JhtpRKySIhoZ1gDwhg/G7uL9i+fTdmzJiK77+bh5SU4/D385MAV1pZy8okKGXnhX+Av6hL+uh8pFuF+2ibZoGafagTgoFazF1sLITZXIwQfWTruSl2JqzIIDgxQFDEmnIQqo+uFYNw/uAB6Nk7UeqXyipL0domrSvro6x7enp6iyJccHCAINiPHk1RXiT+/lITJVMc9/3g/VnYsmkXAgJ1KCw0gU7OFZsNSObAk0kGoV0Y7rn3TmknYwr3xhtvlDpxTk4u+valQzguddyhQ0di3v8WY+3ajfDz01l78hWQIZ2Qv78O/v4+siLk7xRUvhJEqNkE+w4Glhykr98aaCggQiuq3wXlFQeasUUcyh7noLZJkoFZbcGsrj2TJQ11Y5r/8omjkXU2F6dPn8WLLz0uaXzyFLz88ssIDg6WOaQyH5KC+fLLL5fgkvvxbzIh/vjjLwgJiUBEhB5dunTCxRdfjOeee07KFF26dMWCBfNFp2HP7oPQ+XqKEBPnJY/Huckgll0RF110ER5++GHRfWBrJQGSv/5vEfLzzDJ3zSZzteqQLeJmaYN0OwvYIX5cMrYCQzYKi1oZBqFSgNDVXovBOVECBS2kiyGQKUhdjTdOHxKC6VdfjvSMNLRr1x4hIXpxXkRAM/3JuiXLCampp1BUXCQ1z4J8Bh+F6Ne3r6wyCgoKEBYaJi+hHdv3OmCSNCyv4wwLxie0R9euiRg1agSOHT+KfXv3SetZ6qkTyMg4g149+yAt7bQw4w0dNhQph0/gq6++r/HaFVY9L1HnE+pfae9jiZy9fOzxVyiAidpncGAxl0oLIFd1EgAJIZASWKgOqyJT4QCTa4dokgU6doxHZmY2unfvio8++ScWLlwo9X7W9smJQOd9ww03CAaF948ZKDpulh7YOkrOAqbz09LSUVxchKSkRPTt21ecP4MJBu7ENTDDd/jwUeFKuPHGGwS7wECdgQCDhf79+0vWb9SoURKQEMNAQOTcuT8hL8fUaPxMk4yjfblVW8B1+QPFLxQWFUh2PCIs1s6uDcNY1f+GNMwX1f+49ntWtqBHD1uA4AzXppxY0thlpfDy8ra1t9U0eH2IHmFhIVKjJACKm87HR6RpqSdPzn/Wy5k1kNVsOWRlzHMw5enl6SXStgX5BreQkHWEVSmIExsXjdKSUvgH+InzDgj0R/8BvXD86EkcOnRU+sQNhkIEBAZIDbe+8rmsSfsSm8A2R2YJrH3/6qqUnQ3EJhC3wJKECJOIloCSkmF6nF0Lyu8VlD9TxKwfayWJxj2ijvpWUlICbrr5GsmqEYhIzoHysjJs3bZNOgT4nAXrQxCi10v3QrHRKHgAo7EIhYVG5OUahG6bc40Kj3x+yVOQnZUtqo2RkTFITU1HYWGeYIGMxcXwDwhAu7hYlJSWIiI8AiEhoVi2bAkSEhPRvl17ZOfkYveuPUg5klrvOeooe2jHaX0WcF1AUL3tCPAmT0dtC9+WZ/UKq1YKEOwr87woRzg3CRBEmKZEpJ7pTFrS5oqYrTH2YImAwRTrs1ztNWWjYyd4kUECuxGE76C8XMoQdPZUCGQtWZ02/JzRgAQNJt5bawlDsgzWvTwYVJB1UZGJti9bNGWs2nfrbwFqL5DbgH8ziC40KFk3vtAYZAf4+0sHi1r75/0izwHnVV5unpAUBQcHwcfHR7J3fB+QNY6BJIN3tk7m5uYjMJAARG/pMiHDJgGHCnlUmQT6yneVNlr1fDyPFkDW/15qe7qXBVS/UFpCOnoSJVVoDLW0/EF16DrV2rYAoWrtXAFBOSZEIJEE6zT64PCWT5TkXvPUoaMh0t7Xz0fJyJDSuKRUMj6qyI+qhUDqY35G3IKqRWA2EUBWwbCoZhNUemJB8HsqmQcCJF1F0+xQA2kH0yygWUCzgJ0FCgtzhSE0MqJDi7VLVV9vj+Pw6F5jicFxcZCq5hgiIEXfFmvItjBwUXEkiNGTmQSlTMDSgp+/TkocxCHQwet0XjYlRwkidIqUMZkL7QMFe5sJUNLKEUAMhIJUL4GZug6l1QejXJkGBwfKatZo1KR/W+McTEpOwLGjSjdSbRsxSWRZJO6G5TRtq9kCfNbIn3LmTKZTzKQofpJKO1/KvW11K6BYUxHVHBNbsAmq+nq7EoMSIDgmU1CThZpClNSCrV790Otj6mauaxB/wG4H/k1nz6qB2VQqCo/SEOqh4BGYJSB9b1GRSTICSqmCGQgPCRTKRd64ljsofAsKqZCwNzLDQICkHVnTsGGD8fjfH8C3X/+IlStXC/5CYXksRVQ0cRkWCTRycvKELphBDGsh1JVQOBvqY/B6zDJn3BMPoHv3zoKv4XUFBvkjLycffv6+QnFMgGCAfwDCI8KsZFY+yMvPl/bEiPAwIUNixc7P3x++OkpvlwonAUsI0p1SQ9BVj6t1yi4EEcfERFqlp33g66vD+AljcSYzFZs37RWeBgJjBStrxS0RK0HaZXIwUPvBy7sMMdEdsHnzTqSlnZG5yXIHrzctLUPmk42Xw0G33inGcPBB+az6+eqk3EdSsSlTL8WBg3tx0agx+Nc7/5aMoI+vTuwaFKRwWDDgvu32mdiwfju2bN4uLaUMyCl89thj9+L0qXSR7SaLKOccf+/jzXKTr9BxX3nVBGzauBML5i2ruBrHrSurt1Bzgw6qjEohSjIiOCjcwXfUHQ7nAWsGwblPEtHxCohNaa1r85tzze0Q8/JFS0VEOlt2MdCJU9tA7denUxbehJIyyTgw2yCAxvJyKUuwVMEXtfq7czQcqhulFeSoMhPynEOHDsSjf7tPeDF2796Dq66ajq+//hKxsbEYO3Ystm7dKnOKL7avvvwFaafPSHYjPiFCCLLOZhY4xB7OOIi3jzcWLPoWK1euRKGhEJFRkdKFw5dxcnIyVq5cISyG5Lw4cOCAUBLTUaakHJWAatjQC/HtnK9xwQUXCOcBg4rX/+8DePuYUWgwISMt1xnDbvQxO3dJxoyZU3A266wQMpF+uWvXrsKSyNZKtk/u2rUTPXv2xo4d20Xl8dVXX8V3332HiIgIsROZHtkymZCQICBH4h4KCwuxb+8RbNm8C6Fh/jAUEBtR6Ox1T6Pt4IwvhoQGY+SowUhNzUBEeCRGjBqMjh2TxIZshw4LC5dAiuqalNrm/KFy5tGjR6UVlc+X0kbuiSNHUiTI7NmzpzBckoumuLhYjjNu3GVYvfoP+R75ZvbuSakcIDjj4tRjuqHrIM6GpXiC41vj5tG96xCnuysSJZnMxfD3C2ow1XJrNHqla3K69RtvQWYCWFpggonBAJ9P8iLQcXPjy0Q6VEqUAEJKBtagQfm8QgRK5VmoV6BgN2SS+jz0yJ3yAiMxFCl+N27ciMWLF+PZZ5+VFxjPSzreMxl5OHbsFE4cP4GoaD2KCk1CkuWuG4OaeQu/ESbDX3/9FRdfPBrff/+daCD8/vtKCXwYHJDXg1oE7ETgvx944AH897//lWCCugdsPSS18TtvfywMhpFRgTCZLMjJcq80fEhoECZPHSug2sWLF+KDDz4QCmYSmv3nP7Owffs2YWjk9VJGevbs2fjPf/4jgRG1IMirQLlqOrKnn34aV199tez/xhv/xGuv/hNHDqfCP8Bbrr0gz+hAmLW7zqCKcQUFB6L/gJ5ITz+LlCMnccut1yJYrxO67J07dyAyMkrmC+mvWRKYOXOm6GCwxZVtrWxRJa8MSepod7ZRM2hj2yrnKdtW+fyRkG3QwEF49rlncfmEidi718kBghsGBfazgfg6ZhD0wRHuP0kaMUKXBAgVGIRWINbUCCPX+hU3DhA4bqbzWW5g2l+CBKuqIzsbZLOKBTEw4LMsqX1VEtp6baJLYNVKYM3BQmxDPVP/wy8cjGeee0TY+BgIFBUakZDYQQKCMWMukfQzkfIUcYqPT8Cfqzdh1qdfSXBiY4R09D1z0PH44l20dA6ys9k2eBjdunXHju07kJiUKNmSfv36SEDt7x+A9PTT8oLnau/bb7/FrbfeKqu6TZs2oUePHvIi/9ujL2DNnxts3SdOrhw22Art28fgnvtukhUXHdWkSZPlb2YFJk+egiOHUxCsD4SfX4CUHxgwkDuB2hpbtmyVbgg6KmYPRo4chS+//ELuMTkWPvpgFrZu3Sc0zu5+3xtsuHp+gWBilcb7xZf/jmHDB+HX/7HFNFa6V1juy83NkfnRr19/EctiUMAs1dmzWQgKDBQFUEpyd+3aTSi3Vyz7Q7pYKLVO1kBSbZM469XXXsWNN96EFcvWYMF8uxJDPcda793cPEAgUVJRUUELxyDUfDcqBwhO6nM0mYtQXFyIwMAQ+HjXTJRU70njyh2dUXt25fgdcC46ff8ApYVNbVckz4G3j6LWKLgAa+cDCZS4P1OYRqPyslY3FW/Av9nuSsdeV508MjIcpODmqoerF0NhEUJDQ+T4fr4KPS/HRafD36WeTMORw0cdcNXOPwQ7O9auX4RDh47gow9mw9PTS5w+sR4F+YXCLWAh74elBMH6ILAkQYpkthcGBPhLwJZfUAAfb2+pH+/cvkdwGO66sR2yW7fO8NapfCgeEggwRcV6eH6+AXp9kOipMBigs6LTIvcJsyzEt0jQ6kUwrEVEwm6743qYzSb87+fFWLRwpWS0tA3o2aubcFds27YLXbt2FLtwvuh8deLwmfXjfCImgU+oxWwWe6vabESyc57t3XNAzJmY1EFaXk1GM0LD9Lh4zFCcOJaOBQuWIz0to+2Z3OoXSABoMhUiLNSOKMlZOAxn+aJz+xxt97MiQKi6knXgRQqfvPCrK8xt2la7BdwtqcA7Ro4E/mE7I2+hqECWlCly0QJaLBF2Rv6OnxGrwM+IX6ja1UCMAssXKjiR3+V+1SlYyGyx0jtbSRyV7ABBkUToiV6EVY7Ag79XlSRbxizr27enYA6OHVNUORlQ0T6C5bBmQYQMTFgsFbZLYnmU67bDF1vlnxs6dxrymDvi/aTeTzmWXKNSrhLRLyvZlnJDFbluIeGyOn3bvtyf3BuenkhOioentxfOZGQKaNPZmyNs4Mgx1jYe2zyyvnMlWFduQGXb2qTDlXezQsFeZpuH6u+sNwqeXl7o3CUJaaczhJCuoXOuputviZ6BWA2FM4YA7ha61dzEAI/uXYYoOkXODBCE6591agYILYsoydW33FEPm6PHTbQ48QiSwrSQOUyp9RJboAASlcDAVw0KSunIlC4HZYVYWWRHnXJ8iXnrvKDz8RL0upHHtMlFO/oq3PN4DXHS7nkFzTsqzX7Na39Hnr2lBQnCpFhe2vIy4/Y3raYAgfGkBAhO3gSDUJSLEH0UdD4VjFNOPm2rOLzTb04DrOTjo5QazEaF64CO3VRMymtmGNjJoLTX+fn5SPDAcgM3dhWw7MCSg5oBZvpzwoRLMGfOzxJ0sDXrpptnoKTEgkOHjwjL348/zJPOCQWuwCyFWdKj/CfZOVnDV6mf1VIGU9VtnaHP/nlnIEebqRsDvXff/z8sXrIS553XFzu27UZwSDBGjLgATz7xMrKysm0siJKh4WKztBRGk7kBM0XbVbNA/SzQ0gKCqlclGITiAsREtWQehJrvlS1AqAo/sP9KddAE9cbWBFuwf0kZjQYUFuUJ0tPHx+8c4eSGHr+2c7fGz+r3qDl/L9qW9XHSMjMAUEWeSJzEdDg/Y3aBDppZBf6eJQduLCdICYIcB6VlmDX7XSxZshCDzx8i7JoEMVI2NScnR1DqxCecOH4SYeHhAuILCgzC2rWb0K8f8QglyMrKAVUuM9IzEBsbI7V3Xz8dvv9uPrZs3ibn51jI19CWNqbh4+PjYDAUSYB2zYxp6N6jk6Tyw0JDsWPnLhw+vB/XX3eD8CscPHAI4eHhiE/ogK1btwunPKWXKcLk4VEmEs3Z2bn45xsfuCSF35bulXatFUrltjKhXTLb/l3e2Pe6srSoSJBXd5z6+LCavmcw5KDYWIDoyARbEr4h53Nn3ye2UzMIVeu//NBRq9cSiwkmixF+voEtu1ajPdHi6Bkg8KkzGS1SdpBsgZXAyMfbSwIDbiwviBqk1Ukz0yBkS+XAG2++gJ9++g7dunWTPut9+/ZJbzX73a+88koBJS5atAhTp04VDoDc3AIMHzYcp9NSpfediH4/X38sX7FMpIjZ0810X//+A/HX+x9Hu/ZhyM8vRnaWoU3dNWZVZlw7Wdo9z6Rn4+lnHxLbEsxJ/oBbbrnFxpvAjoilS5cKip0tbVR9ZIcAuyLYJUL1RrbBdenSBQ8/+BwyMs62KVtqF6tZoCYLqEGA2VQMS4kRgYFhtl1bWsmrFghC9QFC1airqdNEaTsi6IUpy5aeVGqqNVr+9xkgMBtAx8/2Rj9fIutLJHMgFMpeHgJmVIMEZgzsV/LMFtx77y3YuOlPkR2mdHBkZCSOHz8uct50VpQf3rt3r7T1cUs5chyXjB2D7du3yr6keM3OzsGpUycxevRo5OYqpEDdu/XC9KtuRlCwr7A/sqzR1rZevbsgPT0TsTFsK7xBWijDwsIwbtw4kWKmfRmYdegQj927dyEmJkZsyPZJ7jdkyAX44YfvMXToUOGZaNeuHf7x0rs4c8Z9OyTa2j3Wrtc9LKCAogm2bblESXUGCI7KFNR0y5g6JqFEQIAe3i2tzdE95qFbjYLlBIIRmbYuLDSBIk9ePl6SUeBGzAGR0KRbVpUiiU2wDxKI3o+JDZV+69zcbAQHh0i/O1urQsO4+s8T9UG2NPr5+UvbG4MHkgWREc4DDDYVWua4dnEotZSA0tUcz+zPvnErezXXYNgiSh4JPnvM0kRFRQtDIUsy4eGRKC21IDNTyQokJydJ+YEAUS8vHcLD9QgK1kvfPO/dogUrUFjovqRTzWVj7bxt2wLFxQawjT80JLrVGYKBg5QYnB0gEKRYWJQLvQZSdM4kcvYdVNug7EZPZyz6CZQRLjRJFwLLDpI5sMpHc1gEGTJYYMsj/202KUEEgwvKChNsyFKEpzfb2djtYJGaIVvXLGaLtFpJG5G3t3TC8OBsoSwuLIafP6WL2T7Lrm0POY/RZEJxE+WvnXOTGnHUauxuO0ptn6k7kfLaVycBFe1YIrb2lWyeyDKLhoFCfqVoNyitpsZiI4KCg4R0iFwNxINQLEu2muZafcbTCBO43Veaek8cfUHubPc2kC0mSJH+Lbq1ghS7uaCLgSsYGjEoKEyTe3b0C0KiO2eHeNX3wQb+f3vfAR9XdeX9H2m6Rr03S5ZkufcCmF4SSpZmQgKBQBIIySbsLoGw2S+bbMqXL21JNlk2dXdDGiQhJGB6D8a4YRtc5Cbbsqzey/Sikb7f/7x50mg80sxII1mS5/1+IEvvvfvuPffce8495X8sBjnBUwmg3KDSQCuB5KhrlKqQVBgEXEmElU6EveJ+GB31wr2E79MywXRJcQ2MqfjMNi/fRCd9vHHGiwaxtDMd/ZkorabrvZlGg1jmb7poNKyhjkQhTvenp+l7DL5nEH52VvE0fXF6P6OJqCBMJsSTYxFMjhFhIEBJwW3O5DDOyYTWBsY+aqzBsjyWUNeY3ptqZUEBUuHEJms1geqNgNPukQBE4lwQbU0FuikozIZWa5Aqg+QDI5UEQAIbGZNiMhuRkZEhoCtymk1SSkIzEJFIjZaUVLjdXvR09wZISXAghXgqUJJKHvnrVFtTpnd9xudrmpEK76T9gqr5aG5pQ1qqBb4BZpr4BamRc8BAzwCOjoKpo6pyCbrGZy7meiuq1SAOcmOE+aY4FUHdq2PZZwPPKjBtXDKB1RJL6sV0yb6JyKIAn44oCGPlOYamN4QT7qEdCFkE9HUO+H1iPUjSjBPMESo0J/LtcBEX0fR5Lrw3akVNzU6UnpGOoqJ8yWRgGl1BQRY6OnpEyBgIj6vXSr0ECm8umrs+8WHUHDyErVvehcdL9wJhlgfFvE3Y7YrKMhiNSWhv68fphiaBDaYf3DvgRVlZKe77zF3YsX0Xdmzfg56efhkUzePEiVcLRFGhYLwCLRDMdujt6RcYXjGbR1nzYWqodXZaTbGY4fV4xY2TX5CHoSE/Ui2pIvitVhtu/ei1qKxYhOycdLz4wmuoXrgA11xzJT597wPo7emVokh9vf2Bct8DMh+nTzdJJkTiSlBgfApIcZZQA2H4Q2E4wRXvPT+0sxM1AI0xJt+AV2J5mKE3fEUrx4L7Fu0700XbMRWEcNrUJNcE80TtjgRQ0iTJGOXrU2tBOO/8tbjsivPQ398rGQZPPPEE7rrrbqkGx0pwPEAQt4DY+Qurl2DXu9tRVVUlRYWqqxdJUSG32yUlehsbGyR4bv/+/bjsssvlbzzBsjLh8ePHRFCxCt2pU3UY9LO+A4tGKf5xlj1ubW2Fx+OW4EVaNYihkGLOwo9/9DPk5adJyWOWfD6XLsZnXPehy9DY2CZlj2/72PU4cGAfVqxYIdkKTB0loimzGTgXrKTIuIRLL70Uv/nNbyRI9O6770ZDQ6NkkbD+wZo1a/HQF76GttaOc4mUibFOiALnSJZaQFDbHIEYhJwgoKSZ7PUJN6fjpDGcaUFQG4jjIF1uO5wuK9IsBEoyTIjtEi9NhgKqIWxibQSzQmlpEZYur4TJpBUhzVKxx48fF0HPE6bFkor6+lNoa2vDyhVrwwGqwgAAIABJREFUUViUK9gGmzdvlvz6goICCSxkuWJiHLzzzjsisNauXYfNm5/BjTfejN6ebjS3tOCGG64XDIS6ulPQ6UxYt3YNBvxesOjPwYMHUVlRhcef+D1uu+02KUXLE/Pixcvw8Ts+g+wcC5xOD2zWQHDdxIZ+Vt+ayGGHCsLll1+Arq5euF1ePPTwZ0UBoxKwadMmXHXVVaIMFBcX45qrr8Err76ClStXYs2aNfjpT38qSh7xEn71q18JAmN1dbUAKf2fL30HXZ3dY0a7xHG7OKs0j/TxicxJpDYnc/9s0V1RA84RZWCcCSJCMOPrcrNLJzONZ/fdcRWEqkhQy5N3Jvn9A7Kx67SGQL5oIghhavG9RpuB4mlTYLrhR267AR/4wCWora3F4sXLceTIQREsrErIk3xODuMOkkXAULjQ1VB7vFZOsARAIhxyfX0DNmxYi86OLrS2tYi1oKmpWQRXU1MrUlIMKC4uEaFPiwSVjJKSEtTWHhMFg6A9JcWFaGhsxOrVq8RiwW97PYP4+B2fFWTGc9XFwIqIzDooKirAPz3waWTnZAgsNen5+OO/F+Cj8vL5kuFA7Am6a5YuWYr3972PjIxMHDxwRHAkKiurZL46OjrxrW/+GL29CtZE4kpQYLR6EK3jXX1r8jJFmYFIcmQqv6d8n9DwlG8GgynAFNHSYqwgtFGRP0FK2HQHxCnD0SwcVhCmMAghbDWocItspjliZlvwQihNFXrGU0GgEJ43r1h82wwqtPbbkZaaAk1ykqTF0UXAsrFarQ46rQaMeWO5Xi/rKGi1SE6mj1IDaz9xMZgFMSRm7AG/AtdMa0JnR48EzVGxoGDjfabbsTS0w+kQ5YPftVjM0pZRUvcgAE3WPhsOHVZK1J7rl16nQ2FRvtDJaDQGkkKGoA2U+yVdWd+C/KHX6WG3O0Qh6O3tlzkmCia5h2mPJ07UJ2IQznWGChKBweIqIErGENjhhHS8Aw3Gc8yH3xPDT2Us9qF4yKrgXsSjvXgGKIypIATrhvERLXQxOJxWqcWgT7gYzuo2E58ZHT0Exh1QsEslR59S3lkt2sTfJc1xeHPRKHUSBkbKQA9Xm5XMiCQYjFr4PH54fSNBcTM53fusTmiMHw+mI5W9RNZHjAQ8xx9POBVGdjIevhhbxxi70S6Gs+X4mShzju1jGGVBGG1D0MTt7CkKggQp5kixptl0xaJTzqZxxbuvFDY6bZIoCoRfpgLAy2Ixwm4/Mw7AZDJINoL63GhdWiMpjmpRKOIinGtXrMI71ufPBXoG02TcdRxQlPi8ksILcWOFu+jyUu+Nan/43ZHMmdD21OdD3wutSBruubHmK/RZtf98XlX+4s0biT1xxEEsxZpcVuQGASVNlXowVXSnpXYkXTPYQBDkYgg1RAe/NNnNxONxKkBJKZnQ6vSTbS7x/gyhAEsJMzBRKbvM4kxa6ZnEAgh4kqJyEiDJ5WIZZhVDAYKaSOWBqY+EUk5PT5WqgYxPqK6ukKC6AwcOC4wz8RWoTPA/ZYNmbY8hSXNkO0yppGuD9ySPfxZfVLBY+jo3NwsHDx4V+tL1otA1ScbNcfLiPdJam6xFXn62/N7Z2TOmcJvFZJlQ11etWgqr1QG9Tispm0zx9Ho90OtZPVSLpsYWZGZmiDultbUdaWmp0OmTBaCL+kFff5+kZdtsPOC4kJWViZycdEnrzcvPkeeYXkv+Y9EybbICMW6zOcC1QbeOn9geUqqcRcs8SE5iX5LElcMgX6bJ0XVmtpjhsDGOhkq1Wdw9nGu6g06eqJd2MzPTA1gjGrhdHgwODSI1NUVwQRi429VFyHILmObK1NTa2jq5z/fIF6xfkrjiSwGn0wq3x4GszML4NjyNrYXK+hHUFEBTXXVeAHZmtPE5ngrCNI418alpogAF+Nq1K6DTU/g7pRyzf3AAOq1OYgGIrijQvnpaCtzQaLQCymMymtDd3SWQyOXlZSLk09MtWLN2Jd5/r0bKNt/76TtkU2aJYWIlDAx4Bd+Am3xWdqqUcU5LzZDvGowG2QwZ50AI4f5+O1pa2gTFkc+xHsRsuCgA8gtyUViYizvv/Ah8Ay78+ld/gt5ggtNhR0ZmBlJSUtDZ0Yn8/DxYbTYREiaTWYQasST0BjN2bH8Pg37vCBrlbBh8nPrIoFgGZLqcbilN/f++888oLiqF3W5HZ2e7ZMZYLClYtHAJenu78exmpuYuxK0fvQl/+tNfkZ2VDrfHKaWyb7zxesmwKS4qwYEDR7Ft2y7cccetePW1F7DxgstRVJyDhoYG6TkDbN9+e4vUumDKLWM7WFCMyh7Tf41GMy6+6GJ0dLZJ7ZETJ05KfN3yFcskG6e0tAzd3Z3IzSlAf38/6k7Vwmy2CFbIwupqPPqf/w2D0YgLNq6Fw2EVRdFsSoMmyY+G06dRtaBKlJEkjV7WGpUVtvPCc1tw+RUXorunDR6XBn/5y/MJl1KceG0uNTOWgiBxJlQQlMFOnYJALdnndcNgILiNcspMXDOUAuGCFMLYtjIy0/HgF+/D+vVr8dxzz6GkpFhOPdnZWZJbz8vj8eDGG2/Crp27oNUZoNMlYdGihYJX0NjYiLVr10p2wuOPPy5lhlk1kJsikRXZBrMXaF04fPgQBv1aVFRUwmROlpMeXRPc+Nvb2+RdnsjsNjvSM3Lxve/8B+aV5aCvz4HODtsMJfTobjHwcvWapbjqqouxctUKvPHGG0KbJUuW4ckn/yhZIueffz5eeOEFyUJgRshjj/1aSjU77HYcOXoE6Wm5qDl4HDl5JtitbrS2RpF1EIs9dKpsnHGaoaysDFx2+Xk4daoJe/fU4IEHP4G1azago6MDW995CzarR/AgPvDBy/Dcc8+KxeW8DeeJknvqVL1YFyjUbVYHrr7mA1IFk2m7LCXOIlc33XQzHnvsV/jABz6A7du3S3GxZctWiIWH1S9vumkTUi0WHD9RK+mhLHpVW3tUeLfm0F7827/9G1paWiUbpKenC1mZeejr75FnWZJ7yZKlUjxry5Y3pJz5h667HplZGcLnBw7sR3p6JpKTDNi7dw/Wb1iFBQuq8ec/vYDi0gyp1Hn6dIOsoV27dkp2yqqV65GeQQCfIRw8cBTPP/cmrP0R1kMiyCAmbmQhQlqGUlIyYnpvZj18ZgyC+hdNddWGqYhbGzV+VrxSijXlQD/LYhBm1kROQ2+i5AZupF/92hdgtfVIKmNdXR1KS0sFt8BgMMIp2QaEXtbg2muuw8m6erS2NmLRokWyEfLERaFHIfizn/1MMBFoUiX4EUsRUzloamoSfAUCKCUn67BwYXUgLU8B+KHC8Lvf/Ra33367bOI0vS9atBQfvfUepKYaBc7Z7Zod5Z4ppEpKc/H5++9Fbm6uKEUbN24U2j7//PMijO655x4BM+Lp9NZbbxW8AgIeEcPgqaeeQnpaHg7sPwaNZkBqWbic3sgMM4cUBMJzzysrEmtTe1snHvmPr8rp3OV04vU3XoPHM4h5paW4edMNePfdXfjjH/+Ib3/7O0LrlpYWUQ7S0tJQe+wUrr3uKuE7l8sl6bxMBSW9qaBxLsrKylBTU4PVq9eKWf83v/k1rrryGqSYzfAPEQW0DD3d/ag5dBCnTrYCSS48/PDDokwvXLgIXV0d8LgHkZZuwerVK4Xv09LSRWl59dWXpR+0DrHKZmnpPPzyl7/Ahg3nQQOdtLlq1TKYzSk4eaIZLa11WLduA95/f4/wAtcR4yTY3vbt20SxfGfrdrQ092LP7v3j80RCQYi8ZoKeYAwCMX7mbLGmhIIQEz/M/YejVBBIiJs2XYdVq6uxfPkKNJxuEGQ+pityY+Kpij7WmpqDuPzyy9HT04vm5mbUn2pGcUm+pEgO+IaQX5AtygDxD2gWZQwBT1RUDtra2uHz+pFfkCOKBE24hw7VSAxCV2ev+N1tNqsAMKk4CDabC3fd8blZN09UpC66eAM+dufNYrL2er0oLS2RzZ7KEGlZWVkp6IYUVjk5eQIsNa+0DLm52WhsasLOnfvw+itvi2A7V0snBAcRPvylz6Oyah4cDicaTjcjOztDTuQ+H6DVMghRIzSmW6C+vl4UBL3ehC9/6Vu4+5O3Yd68ArjcHvT19mJeWamY8XmaJ4/ypM53kpKSMTQIdHS04c03dolrjPDirEdSd7IBxSV5eHbza7jyqouxeEmVuMJaWzvgsDuwdt0qAfii9UivM4kvm665jo4u4XHGDzCegBYAq9WO/l67KECdXd2oO9GApcur8ezmzbjt9tvx5hvbcN2HrhBsi9pjdWhuasP5G9fIuiDM+XUfuhJvb3kXj//+qYSCEMfd4dxSEMbCr5gkQRlMQ/8wF1NwAMQkm52e12e4WXV6iBD+Kyy3XFCQK8GDUjLYPygblH9oEMlSdClJ/ivIz8dtH7tJzKubn3lFgqlY8ZHvpWemS6AhMRSIpcDcfW6YxEhobe2SUsPMZmAgHrEViKdAHy/NwGazKRDIpfBVUnKyuBna2zvPJlkm/G3SMycnS97nGFnMyuvzBdYOM0TonlOCFBk0pwZ/kl5KcJxdTMiJ1EVlCniyN6eYFHrZnSDIF/cilhzPyEyTn4xhIe0YB0r62uwOtLa0IT09DZZUsyhaAwyOTU6S96lE8FJSef3C8+Rjo8mAlmal2BVdHYNDQ/C4PRIESeVYb9CLa4z3ebpnm1RWWGKbyoDNbpeS3AyepBWBf+P8fu0bX5Q6Gg/841fgdLqkuBm/SaWHY/vnf/kcMjMz8b1v/5dEonMs/X1Weba4pFAwLLjeCF7Gb7DGxqSvxJ44nMYwOMTqtQyYDnKdx2KVi2Uyporu4TCbAv0acTGEnhynapCRCDJVRIj03cT9uFKApaCdDi9S04ywWSnMDIEqgYOyufojpC4y0NFkYoDiIDws/Zy4EhQ4BylAJZgKAxXlcBcVAj5DhSFxJSgwIQqobqUwWInToiAkajFMaNpmzUvhvBIGqfZIq1GSnNqYLsZ0K57Y7DarZBvQZJualor2to5RIbJMbSwqLpSTks1hk8qE/DezImjO5Qk5Bk/IrKFjaEenQ1eO5RwwHf2J52SR30xGI/r6+gPxBalyeqfFpbu7VywM5CnyV4olRcz+/Bv5i2iSfJ8WBf59LEzV4P7GQst4jTPSNxMhBfGidPh2BCjJY0Nu1hytxVBdOQ1BioKk2Ie01ESQ4tSy6/S2TqvAkqXVYr6l4KcywM2Vm67RoIdWx3THQUl/zM7Kxtp1KzB//jy8/trbaG5pxbzSEuTmZWLbO3vEH0zzK3O1y8pLce21l6KgsBjb3tmFPbv3oa29HU6HA1ULKiR9kbnmGelp8MuGr5WMCf6srT0pfl7tLKnFIOmN+SxolSlxB4zjcNGUnGICWK56aEjoQvcD/06liyfG3p4+ZAfcEczgoEmacR8nTpzCIGufDAzKu+fSRWFIszvnn1aqez99OyqrKvDaq28JbzDwkGmieXk52LPnAPLys4RO9acasGDBfFFa+ZPpkHRvVS+Yjx3bd2PnjvfgdM3Ool8JBWFqV4DdEQhSDK7mOLWfnNbWNdOhIHh9bjAdxGi0QJusm9YBJj42dRQoLi7E399/F0ymFMnjVoGKCvILpKIjiyudbuDmWw2b1Yq2tlbJM9frjVi8eJGYRZnCd8MNmwQcqLmpBU6nW5SI3/z2MXz+8/cLvsKBgzV48/V3ACThwovWCJ4CAWcIXNPY1IiS4mI5EdItwTS/N157C1kh1RyH03YCCb2hbjcVWz74Jyk31e9R8N9z7x3Iz89B/enTKCoqlCDPzs4OiSmoqJiP48dPICMjTSqh9vX2Yf78Mni9fpw6dUKqYDL/n1H4KSkW/Og/fg7fgEMyGPr6nKOqoIw1lvH+ThqEo02wVXKqaRTtnLAmyLLlC9He0Y3aY/X43P23Swrsnj3vS+DrkiULJSiQ2AO33Xa7pA6yhLhgD9SdwI033oi3334be/e+JyWv33//PTQ3dmDr1r0SODgbr4SCMLWzxsBSyjdWKp6L17QoCErQlLLMg6FA5yJBz6Ux8QT7z//yGQHwYV642+0WYcWgKaaC0ZzLiPpbbrlFSi+zLPTu3TsFB+Ff//VfsW3bNjz99NO44447JOWR2Ag8QTO3/1vf+hZuvvlmLF26VFInDx+qxYUXboTDaROshSNHGNmfiq1bt0iWRF9fn/hqV6xYjc/e9yAKitKl1HNf78z2zTJY7vP3342qqirU1Z2U8VOokZ4c07XXXosf//jHmDevTJSHAwcOSB4+6fW9731P6Mho+ldeeQVGQxr+9uY2WNK0sNvc6O6yn0vsKErUBRtX4/TpVhzYfxSP/uSbgivw5JN/wjXXXCOZMOvXb5Dy15WVFUhPz0Brq6JYsUoo6d7U2ITtO7Zj9erVAkhUc/Aodr9bg7q607OSlgkFYWqnTZVt5JW5eE2LgkDrAU+OZlOqaOyJa25QgBaDX/zPv2Pz5qclR1yF/t29ezduu+02/PWvf5V8febof/rT9+HQoUN49tnNkir2wx/+EP/7v/8rm/Wdd94pJmCCxRA8iemQL730EjZt2iTtErGupbkFF19yCf785ycl4LG8vBy1tcfR09ONSy+9VIQplc/q6sXYdNPdAnVLc3xwoaiZSHX6ub/17YfFAkA3CU+zVAAI0kMli8rPgw8+KNgIzIPfsWO7gP1Q8eL9r3zlK0LDtrY2PP3XVyXPnciKA76ZP/Z4zwddLKwCSoRJuhl+9/h/YuvWrWLhKioqQWVlmShepDNpTJRDKrfkJSqrV111laSU8j/y78svv4K21i4cO9qAU6cU1MSZfCWUgemfHcbXUb4RpGwuXqMUhHBZjqFMNxGvpjsoBiFRrGn2sdF4gVDnX7BO8ruJJ8+Nl0iIBr0eHZ1dkp/PioypFpMAHdGKpPjLB9HbY0VuXpZYHZgiRIHe1t6Jro5uVC+sEHcFFQEanzxer7TJYDKH0wkC4jDXu7KqHE6XC5np6dK2IOLVNeD551+bNURmwNyFF25AZWU5evv6JL6A6Xc5udkSTEeXC3OtHQ4bSkoqpGYA/15YmCf+86KiAuTlZ+DgwSN48/UdOHLk+KwZ+1R39NLLNgqd9u7ZL1anlSuXSnlr+l16uvtQWlYiaYas/8FAxNOnmyX+xelyorWlHQsXVaHmwBEcqjkmbq3EpVBgtgWrTsW8qTRwBGIQcoNiECIFjk60P/Gie7ikhTAJDMpcqzEI42U5hjYY6wBns4IQ61gTz59JAeIYMLBQr0+Gf5BKgl8K3UhlGkAKMrHMs8c7oHiigu4NI/4Eno14T7hao7Sh/ps/g3+fLfcC/a5eWIX5FfPw1t+2SW69SjeOiQGOH/q7D2DPnv04sP/QqHvBz51BC5WewdM1GboHz89sp/t4/KHy0njjnc57iQ3nrFKAQYpSzXEWBSmOpyCoCqBKVFEQJmIViGVWJC1taFB8eokYhFgoNzeeZUaBVpcMn2dAijOxHDTBRYYvDaDTKWA/VB6Ue/HSl2cxDYMVndBhjHcviLAM3FQyHAJlioNXe6BEsfhRo9oFEnMySvmc0JxMlB81ypJIXDOKApRrSoVVBUBrNlyxWDg0C6YhzdHvJzIYhYN+uFTtbCBkoo/xoQB9w1QSaBKnIsC4AFoUQi8ptQuN3EugAU6e9kTPO/+CtWhpaYfb40JTY6sA7tDNww0tPy8HK1ctxf79h9HU2Dz5DyZamFoKhLP6TO0XE61HoIDf75M0ZGZmzcVrWhQEt5tFT6ywWLIkVStxnXsUCLYQ0NUgZZjDnFppaVBhm2d6gOHMnEUNqqrmCXb/vLJ5+O///SF27tyNrVvfhtPuQ1d3N6oqF6C/vw+rVq/ANddegW9+4wd44blXZ+ZwEr0asaYlFIQZxw3E96ELPTurZMb1LR4dGl9BUC29wV+agD/C5bbB6eoXoCSddpZpWgmr6vjW/ii5kKZuBtfRhUBrAi8WYlKu0UxFNwQVhbEsDVF+clY+pmENCwoCDaQWg8gE/hpwB6j0GhpSGHMUew4BydpkfPT2v5OCQJ3tVnz9mw9JKeO//e1vWL58uWR9LFm8BDt27hAsAGJJfPPrj+ClF9+YlfSa250O+BRisQlPB0ESe+Lwnmh3BmIQsstGKD9V8xUvuocLQhiDbyIrCHxxklGKAwNe+AYY4W4SgJvEdW5SQG/Qij+cLgRzil5qNYRTEPg3xS2h+PW8DF6cQxfHRiWI/1EhUC8lVkeBkh75I9UA/lHZHYbvjNKpRn7RJCVh7dpl6OjoETyKf/v6g1JK+MknnxQ8iR/84AcCBtTZ2SnVIT/84Q/jK1/+Nl5+6c05ROG5MpRE0MFMn0mCJFG+mU1pM72roxWY4HPZOGymWVCxQTmGhHshGgDyKMgSvOElghSjINgcfUSsCAxS9PlBXBGTyQCH3RNmtCMCjydinU55J1KBpxlHNg3LCicHsjToOlGEP5UkWkeYGsp/j463CCgBE7DUqePnN9n++vWr8T+P/UgwFfbt2ydpo/n5+WhvbxdMhf6+PlQtqMJX//U7eO7ZV2Yc+c69DiUUgtk25+ranXVyLdgaMY78VxSEmK5wWsP4mZUerxN0M6SYM6EToKRIbYynscyWeyRqpFkIhzwxE99Ttcex5jn6OTGa9OJaYGCPTq+Vss8MXlSu4HZG/k3BajDqJMCVIDiD6uMx8e0UP6zRiCJD4UzLAFlcyvr6h+Bn9Ur/9HV60eIKNDe1Y/HihfjVb/5TcAB6evqk3PBTf34Wd971EdisNhw+fAyP//4pKUl8+8c2CcYC4bP5HEtmFxUXCPZEd3cPfvaTXwswU+KaCgpE2ifit/7GWmPjrb/43ZuJe9tE92BlTpwuGzweBzIzCsbdw8LTcDzkoXjei4bu4fk6goIwXhBC9I4WpZpjH9IsOZhtQElTsR3Mvjajn+tIY6NJXa9jkKJf9iqTWQ+30xs2a4HoihRWGy/cILn+LpcL//3L30hBJzdLQA8B+QW5UsDpyOFadHV1w25zCKhNPHosKkogu4xmNvV3KirJAWtIUjKrVVIbYJGqM60CY62gQJiB4BYo8QVqnMHIT3VTUb+rbu4SlzBq/1CUKf7fkmrGzbdcje7OPpw82Yz/+PH/FYTLv/zlL4JO+Yuf/xKNTQ149913pY5D3ckmcf9VVMyTWhl8hnUIqAwQdZCQw/z3Y//zF1htjkjTm7gfJQVisxXEg5uj7FjisSgpoMyJgoNgQ27OvKD3ZuJ8RaOEnjn0KBSE0JOd2kj0RFAsCHZYzBkJqOUo2W8uP2Yw6QQTgeZ1AiTx1O2hwA+51qxbiWuvvRwFhXlYuLAKBoMRu3bukVS99PRUQWE0mYwgkND77x2A2+3F9u178MbrW5BiMUisA4sahV5hMYKUA4EiaEVYJyEpSRHWatCg+ojECgRcAyPYQoqQHxbqoyRAILZAvS3fUd0LIzEHaujBiMtBeU8uhiGMGkgQVkTIvRUrF4oFobx8Hn75Pz/EO++8g8OHD6OoqAg9PT34+Mc/jl//+tdYs2aNoAjW1NTgggs2YuHCBXjggQew6eYPo72jVVAxCXX95z//GXv31KK/zyrBj4lrYhSITSmY2DcSb00vBc60IEzv9yf2tbEsvme2FrOCMHJw0QyHTI3vYODhihvqoJiIueEmHAyzy/mgCsbJOxiUcZMHjGYdXAxSFJAkrVImOoCNoIo+Btj1W3uwatVKCbjjewywI37+hg0bROjxdLty5Uqw/oPT6cRVV30Qd97xGZSUZEoQpNXmCsGXCQhysQwoPBywDQSyBUYUBTVgkK4CJW4gXMxAQH4PBxcqzygCnf9WqKcI+iCBP7GVHdVbySy7DeC889bg69/8ogQkJhP3oKAQL730IjZu3IiGhtOSu93TZUV2biaqqytQW1srCoRGo8WaNStxqq4eJaUlOHnyBAYHNRj0Aw89+LWo+pB4aGwKRNov1fUmyuqIfhg2VCzYQhVPo3T0TsPIfQwdz0SN+jPpPXVMlGsClJSsBFRHmq/gvXS65kvtV7DsDuxGgT6PrbrGRUEI7UDo0vBLFoMXep0RScljZzGEGkGCT0yJewpVQ+0249lx4nVvPNqrcz1ev8Ld0xu1EqRHpYCKI0GSGIg46B8cViD/5cv3w2rtxqpVq5GfnyfPPfPMM0hPT5fqfDabTSL0Wcjovffek+C7G264GR/e9ElYLAZpT8mAGP/sppr3FXeCagkYMfurbga1HWYhBAccUiGgEjHqO7JzB7Zv0Q5UhXrEVTFSSFlFSI5wxgwoHaHrKzjIkTTaeOEaqXXBaoWfu/9unDx5UoCR1qxZK+W1jUYjPvKRj+DgwRocOVKLeaUlqKyqwIsvviDFskqK56GhsR5mswXpaWk4cfK41MtgYOMlF12fkP1RUmAmr79wh7QzBcloq9Vs3INDpyrec+ILZDGYgrIYoqVTcN+ifSfWfTb8YVzZZ9ScqOEDUhi+1iyoWE9Q/CA9dUQPUk5Xo9lmLMYab80QSMLpsiLVkp0ASopyc5lJj0XvTIq+17QGmM16OBxKFgOxEQSG2TtAd75cK1YswcpVi0Q5SEtPF7P+yZN1GBwaRHlZuSgMLKxD4ex2OuH2etHU0IZXX3lrRJtSVsKZ2lW0x7jAc0rMgBKQMBwzEPQ7sxWZYshLFIZAJcnhE16Q7FfbCazS0ZaLYB0hUK4iyMYx9jgCQ0xOTsbdn7wFdSdOo72jD1//xkOSxdDV1SWVNVn5kqmNd911N5555mkpwb1+3QZcceXleP7558WlsHjxYvk7y3Iz62HLli2ihF144cW45MKAghAt/cJJnVjmRH12Ko608W4zevaP6cmpWH8xdSDx8BkUUOckHFDSTJyvUAVk5MAS2NeGN6MR+S84K5EUBOVxpfmxTvSR+CdRrCkShc7N+5ICqE1SAg4BGAI4CVLMSZQGrcQaUBEPBH7LAAAe6UlEQVRQMAJUnIBBOXITSEiV/mqtAQYwhoNxnjIKB4IY1TQnFehIfiYxjkGRQlJ6OpDNEFXZg7E6rK704J9Bz/LPmdkZ8Li9WLCgAg89/Bm88cYbWLx4EUwmE7773e/ivvvuE8H/1ltvQafTobi4GNXV1WhsbJSSxxzLb3/7WymDTNcOyyIzXuGiiy4ZURBC+zcTd8Upm/QwDUcw/kxnVxLfmj4KhA9SnL7vT+RL6qH/TAvCmU4PTZVYEKb2Ghz0g//RTMngr8SVoIBKAaNRJwGKKhOaJA1yQDIC4npNOZeP3VtaH5jtIFUrk6k0KAiJ7BKVmQE/XSuB2IU4DpquhEsuOR/Lli9GY2MzLr/8ItQcfh/ZmUVSJpsKw4F9NcjLy4FOb4A5xYTsrHScOtWI3LxsbHvnXWRmpoM1HVJSzLBabfjdb59EYWE+evusUlnSz7Ud77mKIw2mrKmEQjBlpJ1NDbPO0NAQ0WHnZgmB8RWE4AgYddaiMdeGzDA1leFqjrOtJNlEnVazicsj9XWqTocaiMAkwqLL6R12BZhTDHC7fOJKCAndV3o6Vf2JRIc431esDCP/MbhQLBEB4SPZkwHQByEFQZYClReVnyGoi4JAmYybb7kK9fUtwFCSBCkypTEvLw8dHR04cuQI9HoDVq9aj5bW07Db7SgsLMWAIJ3qJF5hxYq12L9/P6z9bqxcWY3UNAssFovcKy+fj927d2HBggVwOl148/XteG/vIcksSVxTRIGZxu+JPXF4DxpCIEhRE1TNcarmKxq6h7rNVJY808cQkiodnncjKwjqhsyf4/kYxum8x+uCx2OH2ZwObTKBkhJXggIBCgRKPStZDAGrgQYwmw1iWZhOgKGZNidUILisVKVhOIBy2K0xUqtB7TtdBn93/RVob++Ctc+Fn/7i+9i5c6cEcF533XW4/vrrce+99+KDH/wg6urqJAXy6quvFhcDAz37+/uxYsUKOBxO9PVZUVk5H0eOHMaXv/xl/O53T+BLX/qiuB0effRR/PznP0dzUxe2v/OeADElrgQFzjUKEADQ43EiIz1/5gw9koIyVuxNmBFMi4IgMQgJoKSZw0AzrCeEYGa1R2IWMBBRvYwmHQbotx+glj7DOj2Du5OeboHN5sCaNSvwgx99A3v37hXkyvXrN+CrX/0KvvCFh7B37x4sXrwETU0NEpRIJYTBjBvWn4cf/fhHWLpkFRxOO9atXYXWtha8/vob+MQnPiFZJMSeeOihh7B582bs33cUL7+4Bb29CQVhBrNEomtTRAGJQXDbkJsdDJQ0RR+LttkpURDGSjIdq1OhnRinU0wFoRXBaLRAm6yLdpiJ584hCihlnoMrPConZ52eMSsa8dULvkDiipoC69avwqM/+TZeevF11NQchTZZi77+XthtbjBt2+cbRFZWOiypFrEcELXyQ393FbZv24UnHn9WUhzL5xcjMytTFDf/IMGtAKNBh7y8fFit/aitrcPhQ8fh9aqFt6LuXuLBBAVmPQUIs8yCTczQmzVXOAvCGPJfUzV/6oMUGX9AEzIDFGddUYtZM+uzvKOst2DQwecbkIC94Suo4JEUbDoXA+ImOLXZ2ZnYcP4aHK+tQ/2pBoln0Op08Hm90Gp1YICV5CgFUjf1Bj3WrFmGvj4bag4ela+q4GZK7QzOjw86vsug46QksUwkFLcJTlDitVlPASVOakhif+biNS0Kgs/ngc/ngsGQguSEBWEu8lFcxsSAPboVGLAY6lLgPYIpUaCFg2WOSweCGpkJtopoYpLGG7fELyRpFFjoMR4M/YZOmwzfwJnw1Hx9sv2J9xzFs71EUkI8qXnutMUyAgM+D1JSMufkoKdFQVCKNfUjTYCSjHOSkIlBxU4Bg0GPf/in+3D08DHs2vUebrn1epSWFuG/Hv1vtLZ0hm2QuAks8ERrAjMdpuqaCQrCZMem1+lwwcZ1Uuxq8+aXcfjQMdz/D/fAYjHju995NGzzrL/wmc/chX6rDceOHpd3aXkoKMgVXAqbzY4B3wDee++AIDKmZ6Shva0Dl166ETt27MWLL76GDeetwYKq+ejt68fKlUuRlpoqKCo9Pf1icdi+7V1s375bsSoCeODBz4qF45lnXgpbtGuydIjm/YSCEA2VEs+EUoAxCG63DTkzKQYhjtM05QoCN1r6aQRJMSULWp1hTEzx0FNKDK6SKSuszD4FZ3tOF372WIGmM7EvY4WvqCfO+fNL8al7PiambIfDJTn1FDo83a5evVQEBwUPq6KxcFBOdoH4uGlFYEEmuh1YS2DLlu1Yt2GlAA719vRh8dJqKSCUlpaGrs4umMwm/OGJZ6SGQLI2WfLz1TTBya6Z2aMwaCSuwOVyo7q6Eg9+8T68+uormF9eiZycfPz8F/+Fxx77Fd762zYp45ydnQWn0y1Kg9FgEDTIvz79J3z0o7eht7dHEBVvv/1jEui4e/e7uP/+f8Af/vCEFH6iuyc1NV0qW/LZA/tr0N7mwB133oC29jYBXTp27CgeeeQR3HXXXVI/44knnsDy5Sth0JtFsVi1ejleefVFdHX1yLs7d+yZ7FRF/f5sWmPqPqTukcH7UqT1F/rOZPfZxJ44gj0ciqQYaX8OR/tokAOCeXUifBv1ogh5MCYFYbw4xvGEOUGS6O9kgKIKRztWh+eyGXOikzST34sUMMu+V1WV495P34aDNfulsBL92sypz8jIkHLCLLTEv1HoUEEgoh+rC6amMhrfJgWELrnkEjgcbtTUHJDiTllZWRI5v3//vkBangMOhwPr1p6Hf374a5hXlo2+Xic6O6wzmXxx75tWpxWo5fq6JuzbX4vP/v3d0Gh8cLtdyM8vwEMPPSiZCEx9ZDlnWgHuuOMOnDp1Sui3cOFCuX/zTTdj3/59UhKacUN9fXZs3fom5pVWo3ReLtra2lFYWCgFn2jNqaurRWNjEzo7HLjlw9cIjDNhm7Ozs7F161ZRDojGSByGJUuWSMYEoZ0/97nPSbplU1ML3vrbbry78/0ATaLdNqMQj+HKd8ad8menwWjW39np2bnx1UG/T+JxzqZlfDzZO5YyGO3sTEhBCP1opN8TSIrRTsfcfC4rKwNr1y5BybxcpKamYtXKVdixYwcKCgukOFB9fb0oCIsWLcILL7wgAuP88y+E02lDU1MTli5dKoWHKLz27XtfBN2hQzUSz3LgwD5ce+216OtT0uwWVi/Bhzd9Alk5FollcNiVWg/nykVhfv7G1WhqbEN9fTMu2LgWn/rURzHgH8CSxUuw6ZabJT3xD3/4gyhmFOIXXXQR9u07AJ/Xh/kVFUJ3j8cj7gCDwYAFC6pFWSNYUktLOzo728S643I5xfpACw4rbD766H/iI7d+DEuXLcTTT/8VS5YshdlskgwHKhNs79ChQ6LQsQrnyy+/jHvuuUcKbr399jtI1pjxu98+lVAQzhVmnQPjHPSzdszZRVKMpCCEkjkWd9q0KAherxNut0MBStImgJLmwLqIaQg88a9YsQjXXHcFOjs64PdrxO2UYrGgqrJSLAYE+KmsrETdqVNobmoS5D+m1BHhLzU1TRAHy+dXYM+ePfJvpTIoYLPasWBBlQg0llz1+4bwzW/+IKb+xeXhM3wQ8XBKTNKeptFg7drluOzyC6HX0+qSjTfeeA3nnXcB+vp6cOjwYVQvqMa8snnYuX2vACPRwpeZaUZWZhY8Xh80Gj9SLRnIzc+GTqtHa0s73F47MjIywTITRGLkmtbptWhpbsWyZUthMptx7OhRMJ6Blp5Dhw4jLz8PQ4MatLe3Iic7F2npqeju7sKq1atxqKZG2j16pB7Hj9dNcDrCbHux7IQT/GritXObAsRA8HocSE8vmDZChEMY4MfD2dzCdSqWZaGpnIY0R6WaYx9SLTln1RQzbTOY+NAZFMjKyhTMf9Yk6GjvBFPwCBfMwDcWbWL9Bd5L0lB58EBvMIiPOj8/V2C6zSlGcTFwFVARYBu5udkCpMT3eXKmFYKIfs3NrWd/BmYIshPpnpGRJrQlrdLTUsXfT6uOx+MNoDRq0NTYIi4GKgjlZaXwDfjgdLiQX5CLluY2FBUVoK/fCpvVhvkVZdIWFT8qazarA6mpKejt7YclNUWCGFlVkjDaDDxxOV2iALa1dSA7Jwt2m13qQDCtkvPNubM7HGg43RwC1xrDNM5hN0IMVEg8Os0UcASAkuZskOJ0KAiJNMdp5to5+DkKG4NeKwGLvoE4F3KaCnqJOh8PK8JUdG6utKmepUbqV8yVkSXGMTsowDRHyjfLXE1zjFlBiDZ2SJ3fwEY58lrQYp4N++ckrbyzg80j9HKykVAaIMVskqwFu80pJ31WC2xvC5/KKL3RANlZmejp7RuGX+Yh0WDUSYlop8MjLojZcw3JqZqZFqyCSMChiVw8befm5UCv06KpaQZYSiYyCJakzsoYzmZRS3Xb7U6lQqTfj4GBAeQX5IkVibEPDqcTRoNerA1Ol1uqTNJiwZLftFqw0uSc1ccmu/5C5igjg1kuLuFBWpi6unvGpR0tPamWFIljsfbbJWVVpTXng9DbXp9PLEexFlIzGg1SlE2KfY0hDxh4m5mRhs7OnlEjychMk+wnQrGnpJjEWuWwO8/gyBSLWfiKVq/JXCxaxjgdt9sTVKxJocUoAMB4zleoPyBSmkRoQII64OA+xeBj0FSWTzWS4hB8Pi+8PheMApSkDUCuBJ+wwlEhICVkgNFqJVFENEdMsgzXr1hnZbJJKTP/exT2paWF6O+3Iy3NIrPEU77L5ZHANG7yvOx2B0pLi3HRxevQ1dWNrW/vxgUXrMf8yjw8t3kLmhpboTfoRGmgz5pzbbXaUVExD//0hXuwZ3cNnvzjM1JbgIh9aekWyYhhWWiaqV1uL7TJybBaHeBmQz86F7GUUx51ip/+OeHGVlJcAP/goJjrb7jpaskqeOT7P8Xbb++Q8VDQU9AREyItIw1ul+JGofuFroDy8lK4XS6hiTnFjKuvuRyLF5eju6cLf3z8JXGvsH0GAhKptKe7R9IPiTEwU68lSxdi40WrYDRqsWzZMhw8eFAJXl21SqpIMvvEbE5FR2cDrrziahyrrUFaGhUKC/r6upGdlYvTDfWYV1ou42xuacKpk63485PPiTtqZOgzfx0pczTZfirv043EwZMmJrNRMlQ8bi9MLHzm8Yk7j+vis5+7E5mZWag/1YTComw88fvNoqz399ukomdWdoYoDxS2BqMBF1+yAZ+653aYTGY88I9fkTVL/Auu8SuvuhCFhVkYGkrGX556CT09vdDp9Apf+v0wGY1I0iaBgIMDPh+oBJJfDUY9yspKcMWVF6CkpAA//+kTaGttFz52Oqn8Dwqyanp6Gr7w0N+jakEpvvbVH4jiSEVl4wXrsWRZJXbt2Ietb+/Coz/5DhoaGvHv3/+ZrH+OnWO4/MqLcf4FRAd14OmnXobNbpe9hHsVi59R6LMwGfcOKvD8rqxHvQ4uN/cyo6xTujovvWwDDAYTtmzZKS5O7llWWx9ampthSckKLLdIc6nKtfFk2ngrN1L7YyVBTmw3mBYFwe2xg/miKaZMSYvSaJJlITP6k5NEmEoOm9kOKmwlNTJOllImms9olXK3g4qWmqRR/M58R4VxlnaGCP2qvqPAXyqQskSVo487Wb47NPyMVjRiRqNy9fBEMrpd9dvMqffLt5OTFCXH71dOgaHtsh3lmaFhOFsFsjZJ+q/0lzC2OoUOZ7RLXHvNme1CI4ucG6D6bY55pF2OOylAq0C7Irh10m//wEh/iSvA9BzSgRehd9kvlVZsl/8N+ANlmDUawfInbdnfnNxsfP7+T2DVqpXYtn0rKirmS159WVk5mpoahYZsa/WqdXj99dfl1KfVDqG8vFIi4x955PvYtOlmzC+vQlt7q+TjkxYtLS0oLirH6YY6OBw2bLxgI44eO4b33zsqcQrLV1aKP7u8rBLtHa2ijHg8buh1BvT3W3HyRBNeeOFV5OSmwu3yw2Z1KTwSKIVMnzc3qGG+Ii9y/jkHIGSqVnhSeIQQqkJPbhx+Oeko/KrUh1Da5TMKj4x+JhnrNqxCSWkGFi1aiNLScnR2tKO6egF0er1E8RcVFuHV116VgD9e3JyrFyxEv7VPUkD//r6Hcd31l2B++XyhWVd3J8rLKvDiSy/KxrVyxSp4fR5sWH8+evt6ZZN7+KFvwOO1S70FQibzIs+zz1K7PiCMZC5V3iOPcNwaDQZUntYkCfaEOibhkWTyCOAfVPgotF3ShgeA8dolPRmcetllG3HRxWtRUFiIo4dPQm/QYEF1JTo7O1FaOg/Ha08Ij/zxT3/E3r3vSdbLh677EF5+5SVJybz33s/g+9//nsz/Jz/5KTz++ydxqq4VRlOSWKlcTp/0Remvsv6FpzUqHTiXSUp/A3MrSq7QQdkzhGcC8y9rhVIOtATpZZ86s11fgLoU1tyLVL5iu8o6VedgNF+R99Q9g/tg4NvSX/JrYI8b3iuHMBTgveQkXaBmSTKqq8tgszklc2fTrddIgGlZWQU6O9uRamEcigZ2uw19ff246KKL0d1NpaBPxuz3D+HNN7Zj9drlSEnRSTxKSUk5WlsbhcbMHGIVzyNHjsq6JD8Rr8Q34EFRUaGk0XLtUgG47LLLsX37VpjNZhiNJrS0tGLhwgVSUZQHiOLiUnR0tKK4uEQyYRoaGlBetgCNTXUSF7Nt6z4cO3oSN9x4lWQ+nXfeeTh86AiocFOw8zsU2pw7Hk64lq684krUHDqM3t5e0EJCRYJBtdXVC7Fz1zbpx6JFi3H40CEYTWYMDHjh9XqQkZ6JpcuWSfo0lRNaMqjg2O1WVFZU41T9SWRlZsu6OXTooPQlLTUdA34/bDYrDh8+hB888hPkZKnFmiIJ8HNKQRjvxK5qLENSqMlm75I/mIxpMJvS4XJbweBFCq8Uc4ZsyA5HnyxCkykVer0ZLpcVXq8LWp1eNDT6ehgUQoFsNqWBi4NVIin4dHojLOZMUBkh4A4XaIopQ4S+zd4tC5vgLPw+UR3ZLr/NIhvcFO32bmnXZEyVQEq7o0faTdbqkGbJgdvjkP5wYaSkZMnG0W/tEMEr7XJMLqtE5/Pb6al5spFarV2ygPldvd4Eu6MbA2yXzJ2aB2Z4UHnitzlGLta+/jZpl89zDOwvS4qyncyMQumv1dopz5CW/L7V1imbT1KyVr7t8TrgdPbLM/wOv9fb2yJzYDCYheZEASMdeGVlFkm/2A4vtms0pqCvv102UG6uLGlKOrBdFldauXwNcnJzse/ATlhSaB3SIzMjH03Np2RcXKTr1l2C5qZG9Pa1w+6wobpqCbRaI/btfxcrViwVxD6LOUuC3FraGmRzLiwog9lkwcGaPSgrK5VNz9bvRWZ2GlyuPgFPyskulhPlgYN7UFiYD/+ABikpGaKE7Nv/nmxOBn2amAMJ0sVNN8WUDr0+BQ5nr1i0dFqjjJOZEk63VTZ9szlDBCFpzs1PryOt0pX5d3P+tcJ7nH+Hi8iAPhj0KSM87Rnh6czMDBw/cQAXX3wROju5ERuQm0e69wvQU1XlUgEZemvLKyIU8/OKMTAAtHU0IC3VIgBSel0KCgvzZJwFBYXIzytBR2c3TtYdQoo5BWvWrAOG9Ghra8QQBtDS0obMzHw5vbW3NwXWXKrwdb/wCK0rSchMLxQeIe/xkgBirQE9fQwUhGSJWFKyhQ5cU8IjGcVCxz5r+wiPGFKG2xUeScuX9U4a80pPzRW+UNslr5L3BvwueLw24Z80Sz66uzug0w2JNSk7u0BSVGuPH8CGDeuxY8cuLF2yBoODXjS11Ispe37ZYrS2tcFqb0deTh5sdjfMpgy4XKyu54DXOyBj5Jrg3sMNnmuJvM91S+HO/SMtNQf0I3Pt8pk09pdr0Noue5E6tyrPcEwZ6QWyN9idvfLMSLvtIsxZ0t5iyZK1NardZB36rcp6Iuw8+Yhrid+ncpWWxswdv9COP8l35FfuTeRFtktIX/6bexwPQ9wztFoDvD4bMjIYIAqkpeUIr2Zlp0q72mTupS7o9EBHRxuMxlRp25JqwIkTxySFuLBgHtraO2A0JqG/vwe5uUXSvx6uW1sfMjNzkGrJEsHZ2d0iRo/ysiq4XLQOO3gMkzH5B7g/GtDUXA+DwSjP8PDR1t4It9uJjg5axRbA47bD5bGLZa20pEIKgtXXH1PSZ51DcDq8QJIbxcV50Gi00GlThE5p6SblEAe9uBi5X/Vb+wUELBkGybBxOq0wmVLg9QBl5eV4++1XJLV2aJAVY+kP8AqPiKVBn4G0DAtqj9cIreaXV2NwUIO29nrBZSHsuM+jgcGQjO6eNtl7li5ZK/3u6DoNp9OJttbekHLPkXwM4+UhRLIARFJAxvMxqDI5+p+TtCAEmzHDDVq5z1MnmZpaL4UyGZonU/+AYhalQKa27RugeXUIyVq9bNJ8hyd7bjw6nUk2J1aGpBRhG2QUtV31Gb/fK9ohhak2AOvsCwhB5dt6EQjcOCiUuRHyxOPzsl2ekgwiZFk7QqwM8owZarv8NvtLZqIQlFNHMiPxDfJdOdlrNCK0OSb1Gd7ncxRMivWCJnW265P+8B32hX+nkiEnnmQuDGOgv8qpjRUxSc8z2vW6hk/FegPbHRCMcNns9WZRbKiQKf3VQaczCC1Vi4HSrn9YYSCd+B8VE/W0zQ2ASoT0V9o1ydyo7ar95TyKRUaUkRR5n+PmpsI2KTDYf6XdJFHuyBu+AVorhoS+pBU3BNJKmVvyjG/YCqLTm2QOZJ7IM8ns7wjPKHxlkHvsL38qc8BnlP6xXf6NyqlKKyJ98mTMd0QxkjkwKPQc8Ch8pTXITyqsHMMIXynzT57hO8LT5FfSPISnFb4iT/uHnxGeTk6W3znH4nbR0V3DwEx+G8IPmqRkSa3i6qJZlPQa8HmHT/905VHYce54qXPp9TgDVhDGctBVQ7+xR9oJnUueeElj3letCibyyNDgcLs8oXFcbFdO1+R7Cgm/T2gj8895CuIRziv7G8p7nGeVpzlvpOkI7yVBeHpAWdtj8TTpN4r3jBbhK1UJVtcg+Yp8pqxBhb7BPC1r0OsQflX3K9+AC4MBtxnHKPPGdRDEV8M8HTRvI+2ahWfUb4fuReqYOG/CM2yXdEhigSzFCqbwFU3e/oBlb0jWDvmVFQU5VpVflbXilTlR9isE9spBOfRQ2VD3q1H8OjwmrtOg9SRr0CjrRhkT91dmoXAP9irfTtKKhVjdI9S1wj6oY0ri3iN7cMhaYf/UfVpdK7IOlHFzP+WYZJ1yTLIGkwL7ypDwGPdPRa4oezDXjtA8sJ+qNCdvKpZo7tPcnwbg5f4PyJ7BcQzziLg+yXsj+x7nn+2G7qcxiN2QAOZwAQKhspWtj5XIGA0SQgyBB0EDmRYFQfne2ApE9PfHI1L005N4MkGBmU4B9ZwwcyMJ4kvBiW1f8e1DorUEBaaGArHIvnAWgEgKwFhWh3BKRmwjnKSCEPqx6CwK0SsEsWhRsQ088XSCArOJAnNNUUgoBLOJ+xJ9jY0CsSgEoYfneCoIsfU63NNnXUEYMZooRB3xsGgCv6mFMSJpUaHDG3k+Vq9NPOLdI037eEalmXZPtduMNQPj6a/Tfe9coXuwLW3y28DUt5Dgg9EG4rFsobHS6WzsbbH2MZaxjhfVNt33xjr+jpYPym9qQXXlN0V2jSjB4RWG8LIvfHtKX2JxMcRnTWsqy9dN2+FkrAlWN/VYSTCWvSL0dBJuEYUTJKGECBXU49lH1OkIZYX4TNPZbWUujunsUjS6r49H9zPuTdsqHqPv4fbA6IaZeCoCBRLrLzYWibRuopUz4eRIqKwa67wfqy19rEPYWN+LjSITf3paFYSxNLJQYT3W7+NNbGjb0dgbxlMAwikQwd+Pps8Tn5bEmwkKTJIC060whO6mk+x+4vUEBSZCgUjKVCS5MJ51JNwhMF4KQjT5gBOhx2Tf0VRMowVhrM5GmtTJDnLCOCTRavYTtX1NdGCxfG+8b4SzWMVqP5xpNs5Iml2oVjiW1jneTjJd98Y6Voy2cSozPJ55bqJ8Fut7sfLOZMcXaTefTXMdSUKMtc6me/1FyxOx7FGhz0b7jcBzMs2xfC/G9ocfD/eNaHh+ot+bAe/NCAVhSukwltsmnCAJtQuFbmBqR8dzBUVrW4rEWJEWfmj/wxExkro8lkocyXcT6XQ6Ed/MlDJBHBqPZLeMRJM4dCHRxAygwNnkg3BunPH2t3B7RKxm03NpTwznU4hkIoi0j88Alp1MFxIKQiynmOCTWqTFN1X3Q0+L4wmmaBSEWDeMeNNgMtw7U96dchPYTBlooh/jUmCq+SCcgjDX9oPxlKCx9tR40SAaBSGc9W4OL4u5ryDEe/ImGmk5liYaytyRFJaxng9dPLEy+1gWifHMtFOlBEWywsRrQ4jGgjIWXSP1MZb7E+HRqRZGE+nTVL6TEI7hoWTOxlqItEeNZXWIdi1N1544lfw6R9rWVJRNXxbDmDSbyZvd2TQpzgYmOxtzdza+OdPmYqbRYKb152zM19mgwdn45kyj7WylwSzo9/8HOMRLHyn9nx4AAAAASUVORK5CYII=;" vertex="1" parent="1">
                    <mxGeometry x="180" y="170" width="520" height="321" as="geometry"/>
                </mxCell>
            </root>
        </mxGraphModel>
    </diagram>
</mxfile>